<svg xmlns="http://www.w3.org/2000/svg" width="720" height="320" viewBox="0 0 720 320"><rect x="0" y="0" width="720" height="320" fill="#ffffff"/><text x="360" y="24" font-family="Noto Sans JP, sans-serif" font-size="16" text-anchor="middle" fill="#333333">qtest nightly trend</text><line x1="64.22" y1="290" x2="655.78" y2="290" stroke="#dddddd" stroke-width="1"/><text x="58.22" y="293.85" font-family="Noto Sans JP, sans-serif" font-size="11" text-anchor="end" fill="#333333">0</text><line x1="64.22" y1="264.67" x2="655.78" y2="264.67" stroke="#dddddd" stroke-width="1"/><text x="58.22" y="268.52" font-family="Noto Sans JP, sans-serif" font-size="11" text-anchor="end" fill="#333333">20</text><line x1="64.22" y1="239.33" x2="655.78" y2="239.33" stroke="#dddddd" stroke-width="1"/><text x="58.22" y="243.18" font-family="Noto Sans JP, sans-serif" font-size="11" text-anchor="end" fill="#333333">40</text><line x1="64.22" y1="214" x2="655.78" y2="214" stroke="#dddddd" stroke-width="1"/><text x="58.22" y="217.85" font-family="Noto Sans JP, sans-serif" font-size="11" text-anchor="end" fill="#333333">60</text><line x1="64.22" y1="188.67" x2="655.78" y2="188.67" stroke="#dddddd" stroke-width="1"/><text x="58.22" y="192.52" font-family="Noto Sans JP, sans-serif" font-size="11" text-anchor="end" fill="#333333">80</text><line x1="64.22" y1="163.33" x2="655.78" y2="163.33" stroke="#dddddd" stroke-width="1"/><text x="58.22" y="167.18" font-family="Noto Sans JP, sans-serif" font-size="11" text-anchor="end" fill="#333333">100</text><line x1="64.22" y1="138" x2="655.78" y2="138" stroke="#dddddd" stroke-width="1"/><text x="58.22" y="141.85" font-family="Noto Sans JP, sans-serif" font-size="11" text-anchor="end" fill="#333333">120</text><line x1="64.22" y1="112.67" x2="655.78" y2="112.67" stroke="#dddddd" stroke-width="1"/><text x="58.22" y="116.52" font-family="Noto Sans JP, sans-serif" font-size="11" text-anchor="end" fill="#333333">140</text><line x1="64.22" y1="87.33" x2="655.78" y2="87.33" stroke="#dddddd" stroke-width="1"/><text x="58.22" y="91.18" font-family="Noto Sans JP, sans-serif" font-size="11" text-anchor="end" fill="#333333">160</text><line x1="64.22" y1="62" x2="655.78" y2="62" stroke="#dddddd" stroke-width="1"/><text x="58.22" y="65.85" font-family="Noto Sans JP, sans-serif" font-size="11" text-anchor="end" fill="#333333">180</text><line x1="64.22" y1="290" x2="655.78" y2="290" stroke="#333333" stroke-width="1"/><text x="64.22" y="305.4" font-family="Noto Sans JP, sans-serif" font-size="11" text-anchor="middle" fill="#333333">2026-06-05T19:55:20Z</text><text x="186.61" y="305.4" font-family="Noto Sans JP, sans-serif" font-size="11" text-anchor="middle" fill="#333333">2026-06-17T20:13:49Z</text><text x="309" y="305.4" font-family="Noto Sans JP, sans-serif" font-size="11" text-anchor="middle" fill="#333333">2026-06-29T19:58:40Z</text><text x="431.39" y="305.4" font-family="Noto Sans JP, sans-serif" font-size="11" text-anchor="middle" fill="#333333">2026-07-11T19:03:41Z</text><text x="553.79" y="305.4" font-family="Noto Sans JP, sans-serif" font-size="11" text-anchor="middle" fill="#333333">2026-07-24T19:25:30Z</text><rect x="204.82" y="43" width="12" height="12" fill="#4c78a8"/><text x="220.82" y="52.85" font-family="Noto Sans JP, sans-serif" font-size="11" text-anchor="start" fill="#333333">regressions</text><rect x="295.6" y="43" width="12" height="12" fill="#f58518"/><text x="311.6" y="52.85" font-family="Noto Sans JP, sans-serif" font-size="11" text-anchor="start" fill="#333333">missing</text><rect x="367.04" y="43" width="12" height="12" fill="#e45756"/><text x="383.04" y="52.85" font-family="Noto Sans JP, sans-serif" font-size="11" text-anchor="start" fill="#333333">candidates</text><rect x="455.8" y="43" width="12" height="12" fill="#72b7b2"/><text x="471.8" y="52.85" font-family="Noto Sans JP, sans-serif" font-size="11" text-anchor="start" fill="#333333">allowlist</text><polyline points="64.22,290 74.42,290 84.62,290 94.82,290 105.02,290 115.22,290 125.42,290 135.62,290 145.82,290 156.01,290 166.21,290 176.41,290 186.61,290 196.81,290 207.01,290 217.21,290 227.41,290 237.61,290 247.81,290 258.01,290 268.21,290 278.41,290 288.61,290 298.8,290 309,290 319.2,290 329.4,290 339.6,290 349.8,290 360,290 370.2,290 380.4,290 390.6,290 400.8,290 411,290 421.2,290 431.39,290 441.59,290 451.79,290 461.99,290 472.19,290 482.39,290 492.59,290 502.79,290 512.99,290 523.19,290 533.39,290 543.59,290 553.79,290 563.99,290 574.18,290 584.38,290 594.58,290 604.78,290 614.98,290 625.18,290 635.38,290 645.58,290 655.78,290" fill="none" stroke="#4c78a8" stroke-width="3"/><circle cx="64.22" cy="290" r="3" fill="#4c78a8"/><circle cx="74.42" cy="290" r="3" fill="#4c78a8"/><circle cx="84.62" cy="290" r="3" fill="#4c78a8"/><circle cx="94.82" cy="290" r="3" fill="#4c78a8"/><circle cx="105.02" cy="290" r="3" fill="#4c78a8"/><circle cx="115.22" cy="290" r="3" fill="#4c78a8"/><circle cx="125.42" cy="290" r="3" fill="#4c78a8"/><circle cx="135.62" cy="290" r="3" fill="#4c78a8"/><circle cx="145.82" cy="290" r="3" fill="#4c78a8"/><circle cx="156.01" cy="290" r="3" fill="#4c78a8"/><circle cx="166.21" cy="290" r="3" fill="#4c78a8"/><circle cx="176.41" cy="290" r="3" fill="#4c78a8"/><circle cx="186.61" cy="290" r="3" fill="#4c78a8"/><circle cx="196.81" cy="290" r="3" fill="#4c78a8"/><circle cx="207.01" cy="290" r="3" fill="#4c78a8"/><circle cx="217.21" cy="290" r="3" fill="#4c78a8"/><circle cx="227.41" cy="290" r="3" fill="#4c78a8"/><circle cx="237.61" cy="290" r="3" fill="#4c78a8"/><circle cx="247.81" cy="290" r="3" fill="#4c78a8"/><circle cx="258.01" cy="290" r="3" fill="#4c78a8"/><circle cx="268.21" cy="290" r="3" fill="#4c78a8"/><circle cx="278.41" cy="290" r="3" fill="#4c78a8"/><circle cx="288.61" cy="290" r="3" fill="#4c78a8"/><circle cx="298.8" cy="290" r="3" fill="#4c78a8"/><circle cx="309" cy="290" r="3" fill="#4c78a8"/><circle cx="319.2" cy="290" r="3" fill="#4c78a8"/><circle cx="329.4" cy="290" r="3" fill="#4c78a8"/><circle cx="339.6" cy="290" r="3" fill="#4c78a8"/><circle cx="349.8" cy="290" r="3" fill="#4c78a8"/><circle cx="360" cy="290" r="3" fill="#4c78a8"/><circle cx="370.2" cy="290" r="3" fill="#4c78a8"/><circle cx="380.4" cy="290" r="3" fill="#4c78a8"/><circle cx="390.6" cy="290" r="3" fill="#4c78a8"/><circle cx="400.8" cy="290" r="3" fill="#4c78a8"/><circle cx="411" cy="290" r="3" fill="#4c78a8"/><circle cx="421.2" cy="290" r="3" fill="#4c78a8"/><circle cx="431.39" cy="290" r="3" fill="#4c78a8"/><circle cx="441.59" cy="290" r="3" fill="#4c78a8"/><circle cx="451.79" cy="290" r="3" fill="#4c78a8"/><circle cx="461.99" cy="290" r="3" fill="#4c78a8"/><circle cx="472.19" cy="290" r="3" fill="#4c78a8"/><circle cx="482.39" cy="290" r="3" fill="#4c78a8"/><circle cx="492.59" cy="290" r="3" fill="#4c78a8"/><circle cx="502.79" cy="290" r="3" fill="#4c78a8"/><circle cx="512.99" cy="290" r="3" fill="#4c78a8"/><circle cx="523.19" cy="290" r="3" fill="#4c78a8"/><circle cx="533.39" cy="290" r="3" fill="#4c78a8"/><circle cx="543.59" cy="290" r="3" fill="#4c78a8"/><circle cx="553.79" cy="290" r="3" fill="#4c78a8"/><circle cx="563.99" cy="290" r="3" fill="#4c78a8"/><circle cx="574.18" cy="290" r="3" fill="#4c78a8"/><circle cx="584.38" cy="290" r="3" fill="#4c78a8"/><circle cx="594.58" cy="290" r="3" fill="#4c78a8"/><circle cx="604.78" cy="290" r="3" fill="#4c78a8"/><circle cx="614.98" cy="290" r="3" fill="#4c78a8"/><circle cx="625.18" cy="290" r="3" fill="#4c78a8"/><circle cx="635.38" cy="290" r="3" fill="#4c78a8"/><circle cx="645.58" cy="290" r="3" fill="#4c78a8"/><circle cx="655.78" cy="290" r="3" fill="#4c78a8"/><polyline points="64.22,290 74.42,290 84.62,290 94.82,290 105.02,290 115.22,290 125.42,290 135.62,290 145.82,290 156.01,290 166.21,290 176.41,290 186.61,290 196.81,290 207.01,290 217.21,290 227.41,290 237.61,290 247.81,290 258.01,290 268.21,290 278.41,290 288.61,290 298.8,290 309,290 319.2,290 329.4,290 339.6,290 349.8,290 360,290 370.2,290 380.4,290 390.6,290 400.8,290 411,290 421.2,290 431.39,290 441.59,290 451.79,290 461.99,290 472.19,290 482.39,290 492.59,290 502.79,290 512.99,290 523.19,290 533.39,290 543.59,290 553.79,290 563.99,290 574.18,290 584.38,290 594.58,290 604.78,290 614.98,290 625.18,290 635.38,290 645.58,290 655.78,290" fill="none" stroke="#f58518" stroke-width="3"/><circle cx="64.22" cy="290" r="3" fill="#f58518"/><circle cx="74.42" cy="290" r="3" fill="#f58518"/><circle cx="84.62" cy="290" r="3" fill="#f58518"/><circle cx="94.82" cy="290" r="3" fill="#f58518"/><circle cx="105.02" cy="290" r="3" fill="#f58518"/><circle cx="115.22" cy="290" r="3" fill="#f58518"/><circle cx="125.42" cy="290" r="3" fill="#f58518"/><circle cx="135.62" cy="290" r="3" fill="#f58518"/><circle cx="145.82" cy="290" r="3" fill="#f58518"/><circle cx="156.01" cy="290" r="3" fill="#f58518"/><circle cx="166.21" cy="290" r="3" fill="#f58518"/><circle cx="176.41" cy="290" r="3" fill="#f58518"/><circle cx="186.61" cy="290" r="3" fill="#f58518"/><circle cx="196.81" cy="290" r="3" fill="#f58518"/><circle cx="207.01" cy="290" r="3" fill="#f58518"/><circle cx="217.21" cy="290" r="3" fill="#f58518"/><circle cx="227.41" cy="290" r="3" fill="#f58518"/><circle cx="237.61" cy="290" r="3" fill="#f58518"/><circle cx="247.81" cy="290" r="3" fill="#f58518"/><circle cx="258.01" cy="290" r="3" fill="#f58518"/><circle cx="268.21" cy="290" r="3" fill="#f58518"/><circle cx="278.41" cy="290" r="3" fill="#f58518"/><circle cx="288.61" cy="290" r="3" fill="#f58518"/><circle cx="298.8" cy="290" r="3" fill="#f58518"/><circle cx="309" cy="290" r="3" fill="#f58518"/><circle cx="319.2" cy="290" r="3" fill="#f58518"/><circle cx="329.4" cy="290" r="3" fill="#f58518"/><circle cx="339.6" cy="290" r="3" fill="#f58518"/><circle cx="349.8" cy="290" r="3" fill="#f58518"/><circle cx="360" cy="290" r="3" fill="#f58518"/><circle cx="370.2" cy="290" r="3" fill="#f58518"/><circle cx="380.4" cy="290" r="3" fill="#f58518"/><circle cx="390.6" cy="290" r="3" fill="#f58518"/><circle cx="400.8" cy="290" r="3" fill="#f58518"/><circle cx="411" cy="290" r="3" fill="#f58518"/><circle cx="421.2" cy="290" r="3" fill="#f58518"/><circle cx="431.39" cy="290" r="3" fill="#f58518"/><circle cx="441.59" cy="290" r="3" fill="#f58518"/><circle cx="451.79" cy="290" r="3" fill="#f58518"/><circle cx="461.99" cy="290" r="3" fill="#f58518"/><circle cx="472.19" cy="290" r="3" fill="#f58518"/><circle cx="482.39" cy="290" r="3" fill="#f58518"/><circle cx="492.59" cy="290" r="3" fill="#f58518"/><circle cx="502.79" cy="290" r="3" fill="#f58518"/><circle cx="512.99" cy="290" r="3" fill="#f58518"/><circle cx="523.19" cy="290" r="3" fill="#f58518"/><circle cx="533.39" cy="290" r="3" fill="#f58518"/><circle cx="543.59" cy="290" r="3" fill="#f58518"/><circle cx="553.79" cy="290" r="3" fill="#f58518"/><circle cx="563.99" cy="290" r="3" fill="#f58518"/><circle cx="574.18" cy="290" r="3" fill="#f58518"/><circle cx="584.38" cy="290" r="3" fill="#f58518"/><circle cx="594.58" cy="290" r="3" fill="#f58518"/><circle cx="604.78" cy="290" r="3" fill="#f58518"/><circle cx="614.98" cy="290" r="3" fill="#f58518"/><circle cx="625.18" cy="290" r="3" fill="#f58518"/><circle cx="635.38" cy="290" r="3" fill="#f58518"/><circle cx="645.58" cy="290" r="3" fill="#f58518"/><circle cx="655.78" cy="290" r="3" fill="#f58518"/><polyline points="64.22,272.27 74.42,272.27 84.62,227.93 94.82,227.93 105.02,227.93 115.22,226.67 125.42,226.67 135.62,227.93 145.82,227.93 156.01,226.67 166.21,226.67 176.41,226.67 186.61,225.4 196.81,225.4 207.01,225.4 217.21,225.4 227.41,225.4 237.61,225.4 247.81,225.4 258.01,225.4 268.21,225.4 278.41,225.4 288.61,225.4 298.8,225.4 309,225.4 319.2,225.4 329.4,225.4 339.6,225.4 349.8,225.4 360,225.4 370.2,225.4 380.4,225.4 390.6,225.4 400.8,225.4 411,225.4 421.2,225.4 431.39,216.53 441.59,216.53 451.79,216.53 461.99,216.53 472.19,216.53 482.39,216.53 492.59,216.53 502.79,215.27 512.99,215.27 523.19,215.27 533.39,215.27 543.59,212.73 553.79,176 563.99,159.53 574.18,159.53 584.38,159.53 594.58,153.2 604.78,153.2 614.98,87.33 625.18,87.33 635.38,86.07 645.58,86.07 655.78,84.8" fill="none" stroke="#e45756" stroke-width="3"/><circle cx="64.22" cy="272.27" r="3" fill="#e45756"/><circle cx="74.42" cy="272.27" r="3" fill="#e45756"/><circle cx="84.62" cy="227.93" r="3" fill="#e45756"/><circle cx="94.82" cy="227.93" r="3" fill="#e45756"/><circle cx="105.02" cy="227.93" r="3" fill="#e45756"/><circle cx="115.22" cy="226.67" r="3" fill="#e45756"/><circle cx="125.42" cy="226.67" r="3" fill="#e45756"/><circle cx="135.62" cy="227.93" r="3" fill="#e45756"/><circle cx="145.82" cy="227.93" r="3" fill="#e45756"/><circle cx="156.01" cy="226.67" r="3" fill="#e45756"/><circle cx="166.21" cy="226.67" r="3" fill="#e45756"/><circle cx="176.41" cy="226.67" r="3" fill="#e45756"/><circle cx="186.61" cy="225.4" r="3" fill="#e45756"/><circle cx="196.81" cy="225.4" r="3" fill="#e45756"/><circle cx="207.01" cy="225.4" r="3" fill="#e45756"/><circle cx="217.21" cy="225.4" r="3" fill="#e45756"/><circle cx="227.41" cy="225.4" r="3" fill="#e45756"/><circle cx="237.61" cy="225.4" r="3" fill="#e45756"/><circle cx="247.81" cy="225.4" r="3" fill="#e45756"/><circle cx="258.01" cy="225.4" r="3" fill="#e45756"/><circle cx="268.21" cy="225.4" r="3" fill="#e45756"/><circle cx="278.41" cy="225.4" r="3" fill="#e45756"/><circle cx="288.61" cy="225.4" r="3" fill="#e45756"/><circle cx="298.8" cy="225.4" r="3" fill="#e45756"/><circle cx="309" cy="225.4" r="3" fill="#e45756"/><circle cx="319.2" cy="225.4" r="3" fill="#e45756"/><circle cx="329.4" cy="225.4" r="3" fill="#e45756"/><circle cx="339.6" cy="225.4" r="3" fill="#e45756"/><circle cx="349.8" cy="225.4" r="3" fill="#e45756"/><circle cx="360" cy="225.4" r="3" fill="#e45756"/><circle cx="370.2" cy="225.4" r="3" fill="#e45756"/><circle cx="380.4" cy="225.4" r="3" fill="#e45756"/><circle cx="390.6" cy="225.4" r="3" fill="#e45756"/><circle cx="400.8" cy="225.4" r="3" fill="#e45756"/><circle cx="411" cy="225.4" r="3" fill="#e45756"/><circle cx="421.2" cy="225.4" r="3" fill="#e45756"/><circle cx="431.39" cy="216.53" r="3" fill="#e45756"/><circle cx="441.59" cy="216.53" r="3" fill="#e45756"/><circle cx="451.79" cy="216.53" r="3" fill="#e45756"/><circle cx="461.99" cy="216.53" r="3" fill="#e45756"/><circle cx="472.19" cy="216.53" r="3" fill="#e45756"/><circle cx="482.39" cy="216.53" r="3" fill="#e45756"/><circle cx="492.59" cy="216.53" r="3" fill="#e45756"/><circle cx="502.79" cy="215.27" r="3" fill="#e45756"/><circle cx="512.99" cy="215.27" r="3" fill="#e45756"/><circle cx="523.19" cy="215.27" r="3" fill="#e45756"/><circle cx="533.39" cy="215.27" r="3" fill="#e45756"/><circle cx="543.59" cy="212.73" r="3" fill="#e45756"/><circle cx="553.79" cy="176" r="3" fill="#e45756"/><circle cx="563.99" cy="159.53" r="3" fill="#e45756"/><circle cx="574.18" cy="159.53" r="3" fill="#e45756"/><circle cx="584.38" cy="159.53" r="3" fill="#e45756"/><circle cx="594.58" cy="153.2" r="3" fill="#e45756"/><circle cx="604.78" cy="153.2" r="3" fill="#e45756"/><circle cx="614.98" cy="87.33" r="3" fill="#e45756"/><circle cx="625.18" cy="87.33" r="3" fill="#e45756"/><circle cx="635.38" cy="86.07" r="3" fill="#e45756"/><circle cx="645.58" cy="86.07" r="3" fill="#e45756"/><circle cx="655.78" cy="84.8" r="3" fill="#e45756"/><polyline points="64.22,274.8 74.42,274.8 84.62,262.13 94.82,262.13 105.02,262.13 115.22,252 125.42,252 135.62,252 145.82,252 156.01,252 166.21,252 176.41,252 186.61,252 196.81,252 207.01,252 217.21,252 227.41,252 237.61,252 247.81,252 258.01,252 268.21,252 278.41,252 288.61,252 298.8,252 309,252 319.2,252 329.4,252 339.6,252 349.8,252 360,252 370.2,252 380.4,252 390.6,252 400.8,252 411,252 421.2,252 431.39,252 441.59,252 451.79,252 461.99,252 472.19,252 482.39,252 492.59,252 502.79,252 512.99,252 523.19,252 533.39,252 543.59,252 553.79,253.27 563.99,240.6 574.18,240.6 584.38,240.6 594.58,240.6 604.78,240.6 614.98,240.6 625.18,240.6 635.38,240.6 645.58,240.6 655.78,240.6" fill="none" stroke="#72b7b2" stroke-width="3"/><circle cx="64.22" cy="274.8" r="3" fill="#72b7b2"/><circle cx="74.42" cy="274.8" r="3" fill="#72b7b2"/><circle cx="84.62" cy="262.13" r="3" fill="#72b7b2"/><circle cx="94.82" cy="262.13" r="3" fill="#72b7b2"/><circle cx="105.02" cy="262.13" r="3" fill="#72b7b2"/><circle cx="115.22" cy="252" r="3" fill="#72b7b2"/><circle cx="125.42" cy="252" r="3" fill="#72b7b2"/><circle cx="135.62" cy="252" r="3" fill="#72b7b2"/><circle cx="145.82" cy="252" r="3" fill="#72b7b2"/><circle cx="156.01" cy="252" r="3" fill="#72b7b2"/><circle cx="166.21" cy="252" r="3" fill="#72b7b2"/><circle cx="176.41" cy="252" r="3" fill="#72b7b2"/><circle cx="186.61" cy="252" r="3" fill="#72b7b2"/><circle cx="196.81" cy="252" r="3" fill="#72b7b2"/><circle cx="207.01" cy="252" r="3" fill="#72b7b2"/><circle cx="217.21" cy="252" r="3" fill="#72b7b2"/><circle cx="227.41" cy="252" r="3" fill="#72b7b2"/><circle cx="237.61" cy="252" r="3" fill="#72b7b2"/><circle cx="247.81" cy="252" r="3" fill="#72b7b2"/><circle cx="258.01" cy="252" r="3" fill="#72b7b2"/><circle cx="268.21" cy="252" r="3" fill="#72b7b2"/><circle cx="278.41" cy="252" r="3" fill="#72b7b2"/><circle cx="288.61" cy="252" r="3" fill="#72b7b2"/><circle cx="298.8" cy="252" r="3" fill="#72b7b2"/><circle cx="309" cy="252" r="3" fill="#72b7b2"/><circle cx="319.2" cy="252" r="3" fill="#72b7b2"/><circle cx="329.4" cy="252" r="3" fill="#72b7b2"/><circle cx="339.6" cy="252" r="3" fill="#72b7b2"/><circle cx="349.8" cy="252" r="3" fill="#72b7b2"/><circle cx="360" cy="252" r="3" fill="#72b7b2"/><circle cx="370.2" cy="252" r="3" fill="#72b7b2"/><circle cx="380.4" cy="252" r="3" fill="#72b7b2"/><circle cx="390.6" cy="252" r="3" fill="#72b7b2"/><circle cx="400.8" cy="252" r="3" fill="#72b7b2"/><circle cx="411" cy="252" r="3" fill="#72b7b2"/><circle cx="421.2" cy="252" r="3" fill="#72b7b2"/><circle cx="431.39" cy="252" r="3" fill="#72b7b2"/><circle cx="441.59" cy="252" r="3" fill="#72b7b2"/><circle cx="451.79" cy="252" r="3" fill="#72b7b2"/><circle cx="461.99" cy="252" r="3" fill="#72b7b2"/><circle cx="472.19" cy="252" r="3" fill="#72b7b2"/><circle cx="482.39" cy="252" r="3" fill="#72b7b2"/><circle cx="492.59" cy="252" r="3" fill="#72b7b2"/><circle cx="502.79" cy="252" r="3" fill="#72b7b2"/><circle cx="512.99" cy="252" r="3" fill="#72b7b2"/><circle cx="523.19" cy="252" r="3" fill="#72b7b2"/><circle cx="533.39" cy="252" r="3" fill="#72b7b2"/><circle cx="543.59" cy="252" r="3" fill="#72b7b2"/><circle cx="553.79" cy="253.27" r="3" fill="#72b7b2"/><circle cx="563.99" cy="240.6" r="3" fill="#72b7b2"/><circle cx="574.18" cy="240.6" r="3" fill="#72b7b2"/><circle cx="584.38" cy="240.6" r="3" fill="#72b7b2"/><circle cx="594.58" cy="240.6" r="3" fill="#72b7b2"/><circle cx="604.78" cy="240.6" r="3" fill="#72b7b2"/><circle cx="614.98" cy="240.6" r="3" fill="#72b7b2"/><circle cx="625.18" cy="240.6" r="3" fill="#72b7b2"/><circle cx="635.38" cy="240.6" r="3" fill="#72b7b2"/><circle cx="645.58" cy="240.6" r="3" fill="#72b7b2"/><circle cx="655.78" cy="240.6" r="3" fill="#72b7b2"/></svg>
