<svg xmlns="http://www.w3.org/2000/svg" width="720" height="320" viewBox="0 0 720 320"><rect x="0" y="0" width="720" height="320" fill="#ffffff"/><text x="360" y="24" font-family="Noto Sans JP, sans-serif" font-size="16" text-anchor="middle" fill="#333333">qtest parity trend</text><line x1="64.22" y1="290" x2="655.78" y2="290" stroke="#dddddd" stroke-width="1"/><text x="58.22" y="293.85" font-family="Noto Sans JP, sans-serif" font-size="11" text-anchor="end" fill="#333333">0</text><line x1="64.22" y1="252" x2="655.78" y2="252" stroke="#dddddd" stroke-width="1"/><text x="58.22" y="255.85" font-family="Noto Sans JP, sans-serif" font-size="11" text-anchor="end" fill="#333333">500</text><line x1="64.22" y1="214" x2="655.78" y2="214" stroke="#dddddd" stroke-width="1"/><text x="58.22" y="217.85" font-family="Noto Sans JP, sans-serif" font-size="11" text-anchor="end" fill="#333333">1000</text><line x1="64.22" y1="176" x2="655.78" y2="176" stroke="#dddddd" stroke-width="1"/><text x="58.22" y="179.85" font-family="Noto Sans JP, sans-serif" font-size="11" text-anchor="end" fill="#333333">1500</text><line x1="64.22" y1="138" x2="655.78" y2="138" stroke="#dddddd" stroke-width="1"/><text x="58.22" y="141.85" font-family="Noto Sans JP, sans-serif" font-size="11" text-anchor="end" fill="#333333">2000</text><line x1="64.22" y1="100" x2="655.78" y2="100" stroke="#dddddd" stroke-width="1"/><text x="58.22" y="103.85" font-family="Noto Sans JP, sans-serif" font-size="11" text-anchor="end" fill="#333333">2500</text><line x1="64.22" y1="62" x2="655.78" y2="62" stroke="#dddddd" stroke-width="1"/><text x="58.22" y="65.85" font-family="Noto Sans JP, sans-serif" font-size="11" text-anchor="end" fill="#333333">3000</text><line x1="64.22" y1="290" x2="655.78" y2="290" stroke="#333333" stroke-width="1"/><text x="64.22" y="305.4" font-family="Noto Sans JP, sans-serif" font-size="11" text-anchor="middle" fill="#333333">2026-08-01T19:08:15Z</text><text x="194.36" y="305.4" font-family="Noto Sans JP, sans-serif" font-size="11" text-anchor="middle" fill="#333333">2026-08-12T19:02:43Z</text><text x="324.51" y="305.4" font-family="Noto Sans JP, sans-serif" font-size="11" text-anchor="middle" fill="#333333">2026-08-23T18:30:17Z</text><text x="454.65" y="305.4" font-family="Noto Sans JP, sans-serif" font-size="11" text-anchor="middle" fill="#333333">2026-09-03T20:38:22Z</text><text x="584.79" y="305.4" font-family="Noto Sans JP, sans-serif" font-size="11" text-anchor="middle" fill="#333333">2026-09-14T21:38:38Z</text><rect x="220.96" y="43" width="12" height="12" fill="#4c78a8"/><text x="236.96" y="52.85" font-family="Noto Sans JP, sans-serif" font-size="11" text-anchor="start" fill="#333333">passing</text><rect x="292.2" y="43" width="12" height="12" fill="#f58518"/><text x="308.2" y="52.85" font-family="Noto Sans JP, sans-serif" font-size="11" text-anchor="start" fill="#333333">blocked</text><rect x="365.39" y="43" width="12" height="12" fill="#e45756"/><text x="381.39" y="52.85" font-family="Noto Sans JP, sans-serif" font-size="11" text-anchor="start" fill="#333333">failing</text><rect x="429.24" y="43" width="12" height="12" fill="#72b7b2"/><text x="445.24" y="52.85" font-family="Noto Sans JP, sans-serif" font-size="11" text-anchor="start" fill="#333333">applicable</text><polyline points="64.22,274.88 76.05,274.88 87.88,274.88 99.71,274.88 111.55,274.88 123.38,274.72 135.21,274.72 147.04,274.72 158.87,275.1 170.7,275.1 182.53,275.1 194.36,274.34 206.19,274.34 218.03,274.34 229.86,266.67 241.69,266.67 253.52,266.52 265.35,266.52 277.18,260.97 289.01,260.97 300.84,260.97 312.68,255.72 324.51,254.74 336.34,203.66 348.17,191.81 360,175.7 371.83,162.62 383.66,162.62 395.49,149.32 407.32,133.44 419.16,117.4 430.99,111.4 442.82,106.76 454.65,106.08 466.48,103.8 478.31,96.43 490.14,94.3 501.97,92.93 513.81,91.26 525.64,89.66 537.47,84.8 549.3,82.14 561.13,82.14 572.96,82.14 584.79,82.14 596.62,82.14 608.45,82.14 620.29,82.14 632.12,82.14 643.95,82.14 655.78,82.14" fill="none" stroke="#4c78a8" stroke-width="3"/><circle cx="64.22" cy="274.88" r="3" fill="#4c78a8"/><circle cx="76.05" cy="274.88" r="3" fill="#4c78a8"/><circle cx="87.88" cy="274.88" r="3" fill="#4c78a8"/><circle cx="99.71" cy="274.88" r="3" fill="#4c78a8"/><circle cx="111.55" cy="274.88" r="3" fill="#4c78a8"/><circle cx="123.38" cy="274.72" r="3" fill="#4c78a8"/><circle cx="135.21" cy="274.72" r="3" fill="#4c78a8"/><circle cx="147.04" cy="274.72" r="3" fill="#4c78a8"/><circle cx="158.87" cy="275.1" r="3" fill="#4c78a8"/><circle cx="170.7" cy="275.1" r="3" fill="#4c78a8"/><circle cx="182.53" cy="275.1" r="3" fill="#4c78a8"/><circle cx="194.36" cy="274.34" r="3" fill="#4c78a8"/><circle cx="206.19" cy="274.34" r="3" fill="#4c78a8"/><circle cx="218.03" cy="274.34" r="3" fill="#4c78a8"/><circle cx="229.86" cy="266.67" r="3" fill="#4c78a8"/><circle cx="241.69" cy="266.67" r="3" fill="#4c78a8"/><circle cx="253.52" cy="266.52" r="3" fill="#4c78a8"/><circle cx="265.35" cy="266.52" r="3" fill="#4c78a8"/><circle cx="277.18" cy="260.97" r="3" fill="#4c78a8"/><circle cx="289.01" cy="260.97" r="3" fill="#4c78a8"/><circle cx="300.84" cy="260.97" r="3" fill="#4c78a8"/><circle cx="312.68" cy="255.72" r="3" fill="#4c78a8"/><circle cx="324.51" cy="254.74" r="3" fill="#4c78a8"/><circle cx="336.34" cy="203.66" r="3" fill="#4c78a8"/><circle cx="348.17" cy="191.81" r="3" fill="#4c78a8"/><circle cx="360" cy="175.7" r="3" fill="#4c78a8"/><circle cx="371.83" cy="162.62" r="3" fill="#4c78a8"/><circle cx="383.66" cy="162.62" r="3" fill="#4c78a8"/><circle cx="395.49" cy="149.32" r="3" fill="#4c78a8"/><circle cx="407.32" cy="133.44" r="3" fill="#4c78a8"/><circle cx="419.16" cy="117.4" r="3" fill="#4c78a8"/><circle cx="430.99" cy="111.4" r="3" fill="#4c78a8"/><circle cx="442.82" cy="106.76" r="3" fill="#4c78a8"/><circle cx="454.65" cy="106.08" r="3" fill="#4c78a8"/><circle cx="466.48" cy="103.8" r="3" fill="#4c78a8"/><circle cx="478.31" cy="96.43" r="3" fill="#4c78a8"/><circle cx="490.14" cy="94.3" r="3" fill="#4c78a8"/><circle cx="501.97" cy="92.93" r="3" fill="#4c78a8"/><circle cx="513.81" cy="91.26" r="3" fill="#4c78a8"/><circle cx="525.64" cy="89.66" r="3" fill="#4c78a8"/><circle cx="537.47" cy="84.8" r="3" fill="#4c78a8"/><circle cx="549.3" cy="82.14" r="3" fill="#4c78a8"/><circle cx="561.13" cy="82.14" r="3" fill="#4c78a8"/><circle cx="572.96" cy="82.14" r="3" fill="#4c78a8"/><circle cx="584.79" cy="82.14" r="3" fill="#4c78a8"/><circle cx="596.62" cy="82.14" r="3" fill="#4c78a8"/><circle cx="608.45" cy="82.14" r="3" fill="#4c78a8"/><circle cx="620.29" cy="82.14" r="3" fill="#4c78a8"/><circle cx="632.12" cy="82.14" r="3" fill="#4c78a8"/><circle cx="643.95" cy="82.14" r="3" fill="#4c78a8"/><circle cx="655.78" cy="82.14" r="3" fill="#4c78a8"/><polyline points="64.22,153.96 76.05,153.96 87.88,153.96 99.71,153.96 111.55,153.96 123.38,153.96 135.21,153.96 147.04,153.96 158.87,153.96 170.7,153.96 182.53,153.96 194.36,154.26 206.19,154.26 218.03,154.26 229.86,160.88 241.69,160.88 253.52,161.03 265.35,161.03 277.18,163.76 289.01,163.76 300.84,163.76 312.68,166.35 324.51,166.8 336.34,214.76 348.17,223.73 360,236.65 371.83,249.42 383.66,249.42 395.49,253.14 407.32,262.49 419.16,271.15 430.99,275.86 442.82,279.59 454.65,280.2 466.48,281.41 478.31,284.38 490.14,285.14 501.97,285.59 513.81,286.81 525.64,287.42 537.47,289.32 549.3,290 561.13,290 572.96,290 584.79,290 596.62,290 608.45,290 620.29,290 632.12,290 643.95,290 655.78,290" fill="none" stroke="#f58518" stroke-width="3"/><circle cx="64.22" cy="153.96" r="3" fill="#f58518"/><circle cx="76.05" cy="153.96" r="3" fill="#f58518"/><circle cx="87.88" cy="153.96" r="3" fill="#f58518"/><circle cx="99.71" cy="153.96" r="3" fill="#f58518"/><circle cx="111.55" cy="153.96" r="3" fill="#f58518"/><circle cx="123.38" cy="153.96" r="3" fill="#f58518"/><circle cx="135.21" cy="153.96" r="3" fill="#f58518"/><circle cx="147.04" cy="153.96" r="3" fill="#f58518"/><circle cx="158.87" cy="153.96" r="3" fill="#f58518"/><circle cx="170.7" cy="153.96" r="3" fill="#f58518"/><circle cx="182.53" cy="153.96" r="3" fill="#f58518"/><circle cx="194.36" cy="154.26" r="3" fill="#f58518"/><circle cx="206.19" cy="154.26" r="3" fill="#f58518"/><circle cx="218.03" cy="154.26" r="3" fill="#f58518"/><circle cx="229.86" cy="160.88" r="3" fill="#f58518"/><circle cx="241.69" cy="160.88" r="3" fill="#f58518"/><circle cx="253.52" cy="161.03" r="3" fill="#f58518"/><circle cx="265.35" cy="161.03" r="3" fill="#f58518"/><circle cx="277.18" cy="163.76" r="3" fill="#f58518"/><circle cx="289.01" cy="163.76" r="3" fill="#f58518"/><circle cx="300.84" cy="163.76" r="3" fill="#f58518"/><circle cx="312.68" cy="166.35" r="3" fill="#f58518"/><circle cx="324.51" cy="166.8" r="3" fill="#f58518"/><circle cx="336.34" cy="214.76" r="3" fill="#f58518"/><circle cx="348.17" cy="223.73" r="3" fill="#f58518"/><circle cx="360" cy="236.65" r="3" fill="#f58518"/><circle cx="371.83" cy="249.42" r="3" fill="#f58518"/><circle cx="383.66" cy="249.42" r="3" fill="#f58518"/><circle cx="395.49" cy="253.14" r="3" fill="#f58518"/><circle cx="407.32" cy="262.49" r="3" fill="#f58518"/><circle cx="419.16" cy="271.15" r="3" fill="#f58518"/><circle cx="430.99" cy="275.86" r="3" fill="#f58518"/><circle cx="442.82" cy="279.59" r="3" fill="#f58518"/><circle cx="454.65" cy="280.2" r="3" fill="#f58518"/><circle cx="466.48" cy="281.41" r="3" fill="#f58518"/><circle cx="478.31" cy="284.38" r="3" fill="#f58518"/><circle cx="490.14" cy="285.14" r="3" fill="#f58518"/><circle cx="501.97" cy="285.59" r="3" fill="#f58518"/><circle cx="513.81" cy="286.81" r="3" fill="#f58518"/><circle cx="525.64" cy="287.42" r="3" fill="#f58518"/><circle cx="537.47" cy="289.32" r="3" fill="#f58518"/><circle cx="549.3" cy="290" r="3" fill="#f58518"/><circle cx="561.13" cy="290" r="3" fill="#f58518"/><circle cx="572.96" cy="290" r="3" fill="#f58518"/><circle cx="584.79" cy="290" r="3" fill="#f58518"/><circle cx="596.62" cy="290" r="3" fill="#f58518"/><circle cx="608.45" cy="290" r="3" fill="#f58518"/><circle cx="620.29" cy="290" r="3" fill="#f58518"/><circle cx="632.12" cy="290" r="3" fill="#f58518"/><circle cx="643.95" cy="290" r="3" fill="#f58518"/><circle cx="655.78" cy="290" r="3" fill="#f58518"/><polyline points="64.22,245.92 76.05,245.92 87.88,245.92 99.71,245.92 111.55,245.92 123.38,246.07 135.21,246.07 147.04,246.07 158.87,245.69 170.7,245.69 182.53,245.69 194.36,246.15 206.19,246.15 218.03,246.15 229.86,247.59 241.69,247.59 253.52,247.59 265.35,247.59 277.18,250.4 289.01,250.4 300.84,250.4 312.68,252.76 324.51,253.29 336.34,255.95 348.17,258.69 360,261.88 371.83,261.88 383.66,261.88 395.49,262.26 407.32,267.2 419.16,273.58 430.99,274.88 442.82,275.79 454.65,275.86 466.48,276.93 478.31,281.34 490.14,282.7 501.97,283.62 513.81,284.07 525.64,285.06 537.47,288.02 549.3,290 561.13,290 572.96,290 584.79,290 596.62,290 608.45,290 620.29,290 632.12,290 643.95,290 655.78,290" fill="none" stroke="#e45756" stroke-width="3"/><circle cx="64.22" cy="245.92" r="3" fill="#e45756"/><circle cx="76.05" cy="245.92" r="3" fill="#e45756"/><circle cx="87.88" cy="245.92" r="3" fill="#e45756"/><circle cx="99.71" cy="245.92" r="3" fill="#e45756"/><circle cx="111.55" cy="245.92" r="3" fill="#e45756"/><circle cx="123.38" cy="246.07" r="3" fill="#e45756"/><circle cx="135.21" cy="246.07" r="3" fill="#e45756"/><circle cx="147.04" cy="246.07" r="3" fill="#e45756"/><circle cx="158.87" cy="245.69" r="3" fill="#e45756"/><circle cx="170.7" cy="245.69" r="3" fill="#e45756"/><circle cx="182.53" cy="245.69" r="3" fill="#e45756"/><circle cx="194.36" cy="246.15" r="3" fill="#e45756"/><circle cx="206.19" cy="246.15" r="3" fill="#e45756"/><circle cx="218.03" cy="246.15" r="3" fill="#e45756"/><circle cx="229.86" cy="247.59" r="3" fill="#e45756"/><circle cx="241.69" cy="247.59" r="3" fill="#e45756"/><circle cx="253.52" cy="247.59" r="3" fill="#e45756"/><circle cx="265.35" cy="247.59" r="3" fill="#e45756"/><circle cx="277.18" cy="250.4" r="3" fill="#e45756"/><circle cx="289.01" cy="250.4" r="3" fill="#e45756"/><circle cx="300.84" cy="250.4" r="3" fill="#e45756"/><circle cx="312.68" cy="252.76" r="3" fill="#e45756"/><circle cx="324.51" cy="253.29" r="3" fill="#e45756"/><circle cx="336.34" cy="255.95" r="3" fill="#e45756"/><circle cx="348.17" cy="258.69" r="3" fill="#e45756"/><circle cx="360" cy="261.88" r="3" fill="#e45756"/><circle cx="371.83" cy="261.88" r="3" fill="#e45756"/><circle cx="383.66" cy="261.88" r="3" fill="#e45756"/><circle cx="395.49" cy="262.26" r="3" fill="#e45756"/><circle cx="407.32" cy="267.2" r="3" fill="#e45756"/><circle cx="419.16" cy="273.58" r="3" fill="#e45756"/><circle cx="430.99" cy="274.88" r="3" fill="#e45756"/><circle cx="442.82" cy="275.79" r="3" fill="#e45756"/><circle cx="454.65" cy="275.86" r="3" fill="#e45756"/><circle cx="466.48" cy="276.93" r="3" fill="#e45756"/><circle cx="478.31" cy="281.34" r="3" fill="#e45756"/><circle cx="490.14" cy="282.7" r="3" fill="#e45756"/><circle cx="501.97" cy="283.62" r="3" fill="#e45756"/><circle cx="513.81" cy="284.07" r="3" fill="#e45756"/><circle cx="525.64" cy="285.06" r="3" fill="#e45756"/><circle cx="537.47" cy="288.02" r="3" fill="#e45756"/><circle cx="549.3" cy="290" r="3" fill="#e45756"/><circle cx="561.13" cy="290" r="3" fill="#e45756"/><circle cx="572.96" cy="290" r="3" fill="#e45756"/><circle cx="584.79" cy="290" r="3" fill="#e45756"/><circle cx="596.62" cy="290" r="3" fill="#e45756"/><circle cx="608.45" cy="290" r="3" fill="#e45756"/><circle cx="620.29" cy="290" r="3" fill="#e45756"/><circle cx="632.12" cy="290" r="3" fill="#e45756"/><circle cx="643.95" cy="290" r="3" fill="#e45756"/><circle cx="655.78" cy="290" r="3" fill="#e45756"/><polyline points="64.22,289.39 76.05,289.39 87.88,289.39 99.71,289.39 111.55,289.39 123.38,289.39 135.21,289.39 147.04,289.39 158.87,289.39 170.7,289.39 182.53,289.39 194.36,289.39 206.19,289.39 218.03,289.39 229.86,289.01 241.69,289.01 253.52,289.01 265.35,289.01 277.18,289.01 289.01,289.01 300.84,289.01 312.68,289.32 324.51,289.32 336.34,289.77 348.17,289.77 360,289.77 371.83,289.77 383.66,289.77 395.49,289.77 407.32,289.77 419.16,289.77 430.99,289.77 442.82,289.77 454.65,289.77 466.48,289.77 478.31,289.77 490.14,289.77 501.97,289.77 513.81,289.77 525.64,289.77 537.47,289.77 549.3,289.77 561.13,289.77 572.96,289.77 584.79,289.77 596.62,289.77 608.45,289.77 620.29,289.77 632.12,289.77 643.95,289.77 655.78,289.77" fill="none" stroke="#72b7b2" stroke-width="3"/><circle cx="64.22" cy="289.39" r="3" fill="#72b7b2"/><circle cx="76.05" cy="289.39" r="3" fill="#72b7b2"/><circle cx="87.88" cy="289.39" r="3" fill="#72b7b2"/><circle cx="99.71" cy="289.39" r="3" fill="#72b7b2"/><circle cx="111.55" cy="289.39" r="3" fill="#72b7b2"/><circle cx="123.38" cy="289.39" r="3" fill="#72b7b2"/><circle cx="135.21" cy="289.39" r="3" fill="#72b7b2"/><circle cx="147.04" cy="289.39" r="3" fill="#72b7b2"/><circle cx="158.87" cy="289.39" r="3" fill="#72b7b2"/><circle cx="170.7" cy="289.39" r="3" fill="#72b7b2"/><circle cx="182.53" cy="289.39" r="3" fill="#72b7b2"/><circle cx="194.36" cy="289.39" r="3" fill="#72b7b2"/><circle cx="206.19" cy="289.39" r="3" fill="#72b7b2"/><circle cx="218.03" cy="289.39" r="3" fill="#72b7b2"/><circle cx="229.86" cy="289.01" r="3" fill="#72b7b2"/><circle cx="241.69" cy="289.01" r="3" fill="#72b7b2"/><circle cx="253.52" cy="289.01" r="3" fill="#72b7b2"/><circle cx="265.35" cy="289.01" r="3" fill="#72b7b2"/><circle cx="277.18" cy="289.01" r="3" fill="#72b7b2"/><circle cx="289.01" cy="289.01" r="3" fill="#72b7b2"/><circle cx="300.84" cy="289.01" r="3" fill="#72b7b2"/><circle cx="312.68" cy="289.32" r="3" fill="#72b7b2"/><circle cx="324.51" cy="289.32" r="3" fill="#72b7b2"/><circle cx="336.34" cy="289.77" r="3" fill="#72b7b2"/><circle cx="348.17" cy="289.77" r="3" fill="#72b7b2"/><circle cx="360" cy="289.77" r="3" fill="#72b7b2"/><circle cx="371.83" cy="289.77" r="3" fill="#72b7b2"/><circle cx="383.66" cy="289.77" r="3" fill="#72b7b2"/><circle cx="395.49" cy="289.77" r="3" fill="#72b7b2"/><circle cx="407.32" cy="289.77" r="3" fill="#72b7b2"/><circle cx="419.16" cy="289.77" r="3" fill="#72b7b2"/><circle cx="430.99" cy="289.77" r="3" fill="#72b7b2"/><circle cx="442.82" cy="289.77" r="3" fill="#72b7b2"/><circle cx="454.65" cy="289.77" r="3" fill="#72b7b2"/><circle cx="466.48" cy="289.77" r="3" fill="#72b7b2"/><circle cx="478.31" cy="289.77" r="3" fill="#72b7b2"/><circle cx="490.14" cy="289.77" r="3" fill="#72b7b2"/><circle cx="501.97" cy="289.77" r="3" fill="#72b7b2"/><circle cx="513.81" cy="289.77" r="3" fill="#72b7b2"/><circle cx="525.64" cy="289.77" r="3" fill="#72b7b2"/><circle cx="537.47" cy="289.77" r="3" fill="#72b7b2"/><circle cx="549.3" cy="289.77" r="3" fill="#72b7b2"/><circle cx="561.13" cy="289.77" r="3" fill="#72b7b2"/><circle cx="572.96" cy="289.77" r="3" fill="#72b7b2"/><circle cx="584.79" cy="289.77" r="3" fill="#72b7b2"/><circle cx="596.62" cy="289.77" r="3" fill="#72b7b2"/><circle cx="608.45" cy="289.77" r="3" fill="#72b7b2"/><circle cx="620.29" cy="289.77" r="3" fill="#72b7b2"/><circle cx="632.12" cy="289.77" r="3" fill="#72b7b2"/><circle cx="643.95" cy="289.77" r="3" fill="#72b7b2"/><circle cx="655.78" cy="289.77" r="3" fill="#72b7b2"/></svg>
