<svg xmlns="http://www.w3.org/2000/svg" width="720" height="320" viewBox="0 0 720 320"><rect x="0" y="0" width="720" height="320" fill="#ffffff"/><text x="360" y="24" font-family="Noto Sans JP, sans-serif" font-size="16" text-anchor="middle" fill="#333333">qtest nightly trend</text><line x1="64.22" y1="290" x2="655.78" y2="290" stroke="#dddddd" stroke-width="1"/><text x="58.22" y="293.85" font-family="Noto Sans JP, sans-serif" font-size="11" text-anchor="end" fill="#333333">0</text><line x1="64.22" y1="244.4" x2="655.78" y2="244.4" stroke="#dddddd" stroke-width="1"/><text x="58.22" y="248.25" font-family="Noto Sans JP, sans-serif" font-size="11" text-anchor="end" fill="#333333">500</text><line x1="64.22" y1="198.8" x2="655.78" y2="198.8" stroke="#dddddd" stroke-width="1"/><text x="58.22" y="202.65" font-family="Noto Sans JP, sans-serif" font-size="11" text-anchor="end" fill="#333333">1000</text><line x1="64.22" y1="153.2" x2="655.78" y2="153.2" stroke="#dddddd" stroke-width="1"/><text x="58.22" y="157.05" font-family="Noto Sans JP, sans-serif" font-size="11" text-anchor="end" fill="#333333">1500</text><line x1="64.22" y1="107.6" x2="655.78" y2="107.6" stroke="#dddddd" stroke-width="1"/><text x="58.22" y="111.45" font-family="Noto Sans JP, sans-serif" font-size="11" text-anchor="end" fill="#333333">2000</text><line x1="64.22" y1="62" x2="655.78" y2="62" stroke="#dddddd" stroke-width="1"/><text x="58.22" y="65.85" font-family="Noto Sans JP, sans-serif" font-size="11" text-anchor="end" fill="#333333">2500</text><line x1="64.22" y1="290" x2="655.78" y2="290" stroke="#333333" stroke-width="1"/><text x="64.22" y="305.4" font-family="Noto Sans JP, sans-serif" font-size="11" text-anchor="middle" fill="#333333">2026-06-05T19:55:20Z</text><text x="186.61" y="305.4" font-family="Noto Sans JP, sans-serif" font-size="11" text-anchor="middle" fill="#333333">2026-06-23T20:06:08Z</text><text x="309" y="305.4" font-family="Noto Sans JP, sans-serif" font-size="11" text-anchor="middle" fill="#333333">2026-07-11T19:03:41Z</text><text x="431.39" y="305.4" font-family="Noto Sans JP, sans-serif" font-size="11" text-anchor="middle" fill="#333333">2026-08-01T19:08:15Z</text><text x="553.79" y="305.4" font-family="Noto Sans JP, sans-serif" font-size="11" text-anchor="middle" fill="#333333">2026-08-19T18:36:06Z</text><rect x="204.82" y="43" width="12" height="12" fill="#4c78a8"/><text x="220.82" y="52.85" font-family="Noto Sans JP, sans-serif" font-size="11" text-anchor="start" fill="#333333">regressions</text><rect x="295.6" y="43" width="12" height="12" fill="#f58518"/><text x="311.6" y="52.85" font-family="Noto Sans JP, sans-serif" font-size="11" text-anchor="start" fill="#333333">missing</text><rect x="367.04" y="43" width="12" height="12" fill="#e45756"/><text x="383.04" y="52.85" font-family="Noto Sans JP, sans-serif" font-size="11" text-anchor="start" fill="#333333">candidates</text><rect x="455.8" y="43" width="12" height="12" fill="#72b7b2"/><text x="471.8" y="52.85" font-family="Noto Sans JP, sans-serif" font-size="11" text-anchor="start" fill="#333333">allowlist</text><polyline points="64.22,290 71.02,290 77.82,290 84.62,290 91.42,290 98.22,290 105.02,290 111.82,290 118.62,290 125.42,290 132.22,290 139.02,290 145.82,290 152.61,290 159.41,290 166.21,290 173.01,290 179.81,290 186.61,290 193.41,290 200.21,290 207.01,290 213.81,290 220.61,290 227.41,290 234.21,290 241.01,290 247.81,290 254.61,290 261.41,290 268.21,290 275.01,290 281.81,290 288.61,290 295.4,290 302.2,290 309,290 315.8,290 322.6,290 329.4,290 336.2,290 343,290 349.8,290 356.6,290 363.4,290 370.2,290 377,290 383.8,290 390.6,290 397.4,290 404.2,290 411,290 417.8,290 424.6,290 431.39,290 438.19,290 444.99,290 451.79,290 458.59,290 465.39,290 472.19,290 478.99,290 485.79,290 492.59,290 499.39,290 506.19,290 512.99,290 519.79,290 526.59,290 533.39,290 540.19,290 546.99,290 553.79,290 560.59,290 567.39,290 574.18,290 580.98,290 587.78,290 594.58,290 601.38,290 608.18,290 614.98,290 621.78,290 628.58,289.91 635.38,290 642.18,290 648.98,290 655.78,290" fill="none" stroke="#4c78a8" stroke-width="3"/><circle cx="64.22" cy="290" r="3" fill="#4c78a8"/><circle cx="71.02" cy="290" r="3" fill="#4c78a8"/><circle cx="77.82" cy="290" r="3" fill="#4c78a8"/><circle cx="84.62" cy="290" r="3" fill="#4c78a8"/><circle cx="91.42" cy="290" r="3" fill="#4c78a8"/><circle cx="98.22" cy="290" r="3" fill="#4c78a8"/><circle cx="105.02" cy="290" r="3" fill="#4c78a8"/><circle cx="111.82" cy="290" r="3" fill="#4c78a8"/><circle cx="118.62" cy="290" r="3" fill="#4c78a8"/><circle cx="125.42" cy="290" r="3" fill="#4c78a8"/><circle cx="132.22" cy="290" r="3" fill="#4c78a8"/><circle cx="139.02" cy="290" r="3" fill="#4c78a8"/><circle cx="145.82" cy="290" r="3" fill="#4c78a8"/><circle cx="152.61" cy="290" r="3" fill="#4c78a8"/><circle cx="159.41" cy="290" r="3" fill="#4c78a8"/><circle cx="166.21" cy="290" r="3" fill="#4c78a8"/><circle cx="173.01" cy="290" r="3" fill="#4c78a8"/><circle cx="179.81" cy="290" r="3" fill="#4c78a8"/><circle cx="186.61" cy="290" r="3" fill="#4c78a8"/><circle cx="193.41" cy="290" r="3" fill="#4c78a8"/><circle cx="200.21" cy="290" r="3" fill="#4c78a8"/><circle cx="207.01" cy="290" r="3" fill="#4c78a8"/><circle cx="213.81" cy="290" r="3" fill="#4c78a8"/><circle cx="220.61" cy="290" r="3" fill="#4c78a8"/><circle cx="227.41" cy="290" r="3" fill="#4c78a8"/><circle cx="234.21" cy="290" r="3" fill="#4c78a8"/><circle cx="241.01" cy="290" r="3" fill="#4c78a8"/><circle cx="247.81" cy="290" r="3" fill="#4c78a8"/><circle cx="254.61" cy="290" r="3" fill="#4c78a8"/><circle cx="261.41" cy="290" r="3" fill="#4c78a8"/><circle cx="268.21" cy="290" r="3" fill="#4c78a8"/><circle cx="275.01" cy="290" r="3" fill="#4c78a8"/><circle cx="281.81" cy="290" r="3" fill="#4c78a8"/><circle cx="288.61" cy="290" r="3" fill="#4c78a8"/><circle cx="295.4" cy="290" r="3" fill="#4c78a8"/><circle cx="302.2" cy="290" r="3" fill="#4c78a8"/><circle cx="309" cy="290" r="3" fill="#4c78a8"/><circle cx="315.8" cy="290" r="3" fill="#4c78a8"/><circle cx="322.6" cy="290" r="3" fill="#4c78a8"/><circle cx="329.4" cy="290" r="3" fill="#4c78a8"/><circle cx="336.2" cy="290" r="3" fill="#4c78a8"/><circle cx="343" cy="290" r="3" fill="#4c78a8"/><circle cx="349.8" cy="290" r="3" fill="#4c78a8"/><circle cx="356.6" cy="290" r="3" fill="#4c78a8"/><circle cx="363.4" cy="290" r="3" fill="#4c78a8"/><circle cx="370.2" cy="290" r="3" fill="#4c78a8"/><circle cx="377" cy="290" r="3" fill="#4c78a8"/><circle cx="383.8" cy="290" r="3" fill="#4c78a8"/><circle cx="390.6" cy="290" r="3" fill="#4c78a8"/><circle cx="397.4" cy="290" r="3" fill="#4c78a8"/><circle cx="404.2" cy="290" r="3" fill="#4c78a8"/><circle cx="411" cy="290" r="3" fill="#4c78a8"/><circle cx="417.8" cy="290" r="3" fill="#4c78a8"/><circle cx="424.6" cy="290" r="3" fill="#4c78a8"/><circle cx="431.39" cy="290" r="3" fill="#4c78a8"/><circle cx="438.19" cy="290" r="3" fill="#4c78a8"/><circle cx="444.99" cy="290" r="3" fill="#4c78a8"/><circle cx="451.79" cy="290" r="3" fill="#4c78a8"/><circle cx="458.59" cy="290" r="3" fill="#4c78a8"/><circle cx="465.39" cy="290" r="3" fill="#4c78a8"/><circle cx="472.19" cy="290" r="3" fill="#4c78a8"/><circle cx="478.99" cy="290" r="3" fill="#4c78a8"/><circle cx="485.79" cy="290" r="3" fill="#4c78a8"/><circle cx="492.59" cy="290" r="3" fill="#4c78a8"/><circle cx="499.39" cy="290" r="3" fill="#4c78a8"/><circle cx="506.19" cy="290" r="3" fill="#4c78a8"/><circle cx="512.99" cy="290" r="3" fill="#4c78a8"/><circle cx="519.79" cy="290" r="3" fill="#4c78a8"/><circle cx="526.59" cy="290" r="3" fill="#4c78a8"/><circle cx="533.39" cy="290" r="3" fill="#4c78a8"/><circle cx="540.19" cy="290" r="3" fill="#4c78a8"/><circle cx="546.99" cy="290" r="3" fill="#4c78a8"/><circle cx="553.79" cy="290" r="3" fill="#4c78a8"/><circle cx="560.59" cy="290" r="3" fill="#4c78a8"/><circle cx="567.39" cy="290" r="3" fill="#4c78a8"/><circle cx="574.18" cy="290" r="3" fill="#4c78a8"/><circle cx="580.98" cy="290" r="3" fill="#4c78a8"/><circle cx="587.78" cy="290" r="3" fill="#4c78a8"/><circle cx="594.58" cy="290" r="3" fill="#4c78a8"/><circle cx="601.38" cy="290" r="3" fill="#4c78a8"/><circle cx="608.18" cy="290" r="3" fill="#4c78a8"/><circle cx="614.98" cy="290" r="3" fill="#4c78a8"/><circle cx="621.78" cy="290" r="3" fill="#4c78a8"/><circle cx="628.58" cy="289.91" r="3" fill="#4c78a8"/><circle cx="635.38" cy="290" r="3" fill="#4c78a8"/><circle cx="642.18" cy="290" r="3" fill="#4c78a8"/><circle cx="648.98" cy="290" r="3" fill="#4c78a8"/><circle cx="655.78" cy="290" r="3" fill="#4c78a8"/><polyline points="64.22,290 71.02,290 77.82,290 84.62,290 91.42,290 98.22,290 105.02,290 111.82,290 118.62,290 125.42,290 132.22,290 139.02,290 145.82,290 152.61,290 159.41,290 166.21,290 173.01,290 179.81,290 186.61,290 193.41,290 200.21,290 207.01,290 213.81,290 220.61,290 227.41,290 234.21,290 241.01,290 247.81,290 254.61,290 261.41,290 268.21,290 275.01,290 281.81,290 288.61,290 295.4,290 302.2,290 309,290 315.8,290 322.6,290 329.4,290 336.2,290 343,290 349.8,290 356.6,290 363.4,290 370.2,290 377,290 383.8,290 390.6,290 397.4,290 404.2,290 411,290 417.8,290 424.6,290 431.39,290 438.19,290 444.99,290 451.79,290 458.59,290 465.39,290 472.19,290 478.99,290 485.79,290 492.59,290 499.39,290 506.19,290 512.99,290 519.79,290 526.59,290 533.39,290 540.19,290 546.99,290 553.79,290 560.59,290 567.39,290 574.18,290 580.98,290 587.78,290 594.58,290 601.38,290 608.18,290 614.98,290 621.78,290 628.58,290 635.38,290 642.18,290 648.98,290 655.78,290" fill="none" stroke="#f58518" stroke-width="3"/><circle cx="64.22" cy="290" r="3" fill="#f58518"/><circle cx="71.02" cy="290" r="3" fill="#f58518"/><circle cx="77.82" cy="290" r="3" fill="#f58518"/><circle cx="84.62" cy="290" r="3" fill="#f58518"/><circle cx="91.42" cy="290" r="3" fill="#f58518"/><circle cx="98.22" cy="290" r="3" fill="#f58518"/><circle cx="105.02" cy="290" r="3" fill="#f58518"/><circle cx="111.82" cy="290" r="3" fill="#f58518"/><circle cx="118.62" cy="290" r="3" fill="#f58518"/><circle cx="125.42" cy="290" r="3" fill="#f58518"/><circle cx="132.22" cy="290" r="3" fill="#f58518"/><circle cx="139.02" cy="290" r="3" fill="#f58518"/><circle cx="145.82" cy="290" r="3" fill="#f58518"/><circle cx="152.61" cy="290" r="3" fill="#f58518"/><circle cx="159.41" cy="290" r="3" fill="#f58518"/><circle cx="166.21" cy="290" r="3" fill="#f58518"/><circle cx="173.01" cy="290" r="3" fill="#f58518"/><circle cx="179.81" cy="290" r="3" fill="#f58518"/><circle cx="186.61" cy="290" r="3" fill="#f58518"/><circle cx="193.41" cy="290" r="3" fill="#f58518"/><circle cx="200.21" cy="290" r="3" fill="#f58518"/><circle cx="207.01" cy="290" r="3" fill="#f58518"/><circle cx="213.81" cy="290" r="3" fill="#f58518"/><circle cx="220.61" cy="290" r="3" fill="#f58518"/><circle cx="227.41" cy="290" r="3" fill="#f58518"/><circle cx="234.21" cy="290" r="3" fill="#f58518"/><circle cx="241.01" cy="290" r="3" fill="#f58518"/><circle cx="247.81" cy="290" r="3" fill="#f58518"/><circle cx="254.61" cy="290" r="3" fill="#f58518"/><circle cx="261.41" cy="290" r="3" fill="#f58518"/><circle cx="268.21" cy="290" r="3" fill="#f58518"/><circle cx="275.01" cy="290" r="3" fill="#f58518"/><circle cx="281.81" cy="290" r="3" fill="#f58518"/><circle cx="288.61" cy="290" r="3" fill="#f58518"/><circle cx="295.4" cy="290" r="3" fill="#f58518"/><circle cx="302.2" cy="290" r="3" fill="#f58518"/><circle cx="309" cy="290" r="3" fill="#f58518"/><circle cx="315.8" cy="290" r="3" fill="#f58518"/><circle cx="322.6" cy="290" r="3" fill="#f58518"/><circle cx="329.4" cy="290" r="3" fill="#f58518"/><circle cx="336.2" cy="290" r="3" fill="#f58518"/><circle cx="343" cy="290" r="3" fill="#f58518"/><circle cx="349.8" cy="290" r="3" fill="#f58518"/><circle cx="356.6" cy="290" r="3" fill="#f58518"/><circle cx="363.4" cy="290" r="3" fill="#f58518"/><circle cx="370.2" cy="290" r="3" fill="#f58518"/><circle cx="377" cy="290" r="3" fill="#f58518"/><circle cx="383.8" cy="290" r="3" fill="#f58518"/><circle cx="390.6" cy="290" r="3" fill="#f58518"/><circle cx="397.4" cy="290" r="3" fill="#f58518"/><circle cx="404.2" cy="290" r="3" fill="#f58518"/><circle cx="411" cy="290" r="3" fill="#f58518"/><circle cx="417.8" cy="290" r="3" fill="#f58518"/><circle cx="424.6" cy="290" r="3" fill="#f58518"/><circle cx="431.39" cy="290" r="3" fill="#f58518"/><circle cx="438.19" cy="290" r="3" fill="#f58518"/><circle cx="444.99" cy="290" r="3" fill="#f58518"/><circle cx="451.79" cy="290" r="3" fill="#f58518"/><circle cx="458.59" cy="290" r="3" fill="#f58518"/><circle cx="465.39" cy="290" r="3" fill="#f58518"/><circle cx="472.19" cy="290" r="3" fill="#f58518"/><circle cx="478.99" cy="290" r="3" fill="#f58518"/><circle cx="485.79" cy="290" r="3" fill="#f58518"/><circle cx="492.59" cy="290" r="3" fill="#f58518"/><circle cx="499.39" cy="290" r="3" fill="#f58518"/><circle cx="506.19" cy="290" r="3" fill="#f58518"/><circle cx="512.99" cy="290" r="3" fill="#f58518"/><circle cx="519.79" cy="290" r="3" fill="#f58518"/><circle cx="526.59" cy="290" r="3" fill="#f58518"/><circle cx="533.39" cy="290" r="3" fill="#f58518"/><circle cx="540.19" cy="290" r="3" fill="#f58518"/><circle cx="546.99" cy="290" r="3" fill="#f58518"/><circle cx="553.79" cy="290" r="3" fill="#f58518"/><circle cx="560.59" cy="290" r="3" fill="#f58518"/><circle cx="567.39" cy="290" r="3" fill="#f58518"/><circle cx="574.18" cy="290" r="3" fill="#f58518"/><circle cx="580.98" cy="290" r="3" fill="#f58518"/><circle cx="587.78" cy="290" r="3" fill="#f58518"/><circle cx="594.58" cy="290" r="3" fill="#f58518"/><circle cx="601.38" cy="290" r="3" fill="#f58518"/><circle cx="608.18" cy="290" r="3" fill="#f58518"/><circle cx="614.98" cy="290" r="3" fill="#f58518"/><circle cx="621.78" cy="290" r="3" fill="#f58518"/><circle cx="628.58" cy="290" r="3" fill="#f58518"/><circle cx="635.38" cy="290" r="3" fill="#f58518"/><circle cx="642.18" cy="290" r="3" fill="#f58518"/><circle cx="648.98" cy="290" r="3" fill="#f58518"/><circle cx="655.78" cy="290" r="3" fill="#f58518"/><polyline points="64.22,288.72 71.02,288.72 77.82,285.53 84.62,285.53 91.42,285.53 98.22,285.44 105.02,285.44 111.82,285.53 118.62,285.53 125.42,285.44 132.22,285.44 139.02,285.44 145.82,285.35 152.61,285.35 159.41,285.35 166.21,285.35 173.01,285.35 179.81,285.35 186.61,285.35 193.41,285.35 200.21,285.35 207.01,285.35 213.81,285.35 220.61,285.35 227.41,285.35 234.21,285.35 241.01,285.35 247.81,285.35 254.61,285.35 261.41,285.35 268.21,285.35 275.01,285.35 281.81,285.35 288.61,285.35 295.4,285.35 302.2,285.35 309,284.71 315.8,284.71 322.6,284.71 329.4,284.71 336.2,284.71 343,284.71 349.8,284.71 356.6,284.62 363.4,284.62 370.2,284.62 377,284.62 383.8,284.44 390.6,281.79 397.4,280.61 404.2,280.61 411,280.61 417.8,280.15 424.6,280.15 431.39,275.41 438.19,275.41 444.99,275.32 451.79,275.32 458.59,275.23 465.39,275.23 472.19,275.23 478.99,275.68 485.79,275.68 492.59,275.23 499.39,275.23 506.19,274.77 512.99,274.77 519.79,274.31 526.59,265.56 533.39,272.12 540.19,271.94 546.99,268.11 553.79,260.54 560.59,260.27 567.39,259.27 574.18,257.81 580.98,257.62 587.78,196.25 594.58,172.17 601.38,147.82 608.18,147.27 614.98,133.59 621.78,132.59 628.58,111.98 635.38,92.64 642.18,89.63 648.98,84.07 655.78,83.34" fill="none" stroke="#e45756" stroke-width="3"/><circle cx="64.22" cy="288.72" r="3" fill="#e45756"/><circle cx="71.02" cy="288.72" r="3" fill="#e45756"/><circle cx="77.82" cy="285.53" r="3" fill="#e45756"/><circle cx="84.62" cy="285.53" r="3" fill="#e45756"/><circle cx="91.42" cy="285.53" r="3" fill="#e45756"/><circle cx="98.22" cy="285.44" r="3" fill="#e45756"/><circle cx="105.02" cy="285.44" r="3" fill="#e45756"/><circle cx="111.82" cy="285.53" r="3" fill="#e45756"/><circle cx="118.62" cy="285.53" r="3" fill="#e45756"/><circle cx="125.42" cy="285.44" r="3" fill="#e45756"/><circle cx="132.22" cy="285.44" r="3" fill="#e45756"/><circle cx="139.02" cy="285.44" r="3" fill="#e45756"/><circle cx="145.82" cy="285.35" r="3" fill="#e45756"/><circle cx="152.61" cy="285.35" r="3" fill="#e45756"/><circle cx="159.41" cy="285.35" r="3" fill="#e45756"/><circle cx="166.21" cy="285.35" r="3" fill="#e45756"/><circle cx="173.01" cy="285.35" r="3" fill="#e45756"/><circle cx="179.81" cy="285.35" r="3" fill="#e45756"/><circle cx="186.61" cy="285.35" r="3" fill="#e45756"/><circle cx="193.41" cy="285.35" r="3" fill="#e45756"/><circle cx="200.21" cy="285.35" r="3" fill="#e45756"/><circle cx="207.01" cy="285.35" r="3" fill="#e45756"/><circle cx="213.81" cy="285.35" r="3" fill="#e45756"/><circle cx="220.61" cy="285.35" r="3" fill="#e45756"/><circle cx="227.41" cy="285.35" r="3" fill="#e45756"/><circle cx="234.21" cy="285.35" r="3" fill="#e45756"/><circle cx="241.01" cy="285.35" r="3" fill="#e45756"/><circle cx="247.81" cy="285.35" r="3" fill="#e45756"/><circle cx="254.61" cy="285.35" r="3" fill="#e45756"/><circle cx="261.41" cy="285.35" r="3" fill="#e45756"/><circle cx="268.21" cy="285.35" r="3" fill="#e45756"/><circle cx="275.01" cy="285.35" r="3" fill="#e45756"/><circle cx="281.81" cy="285.35" r="3" fill="#e45756"/><circle cx="288.61" cy="285.35" r="3" fill="#e45756"/><circle cx="295.4" cy="285.35" r="3" fill="#e45756"/><circle cx="302.2" cy="285.35" r="3" fill="#e45756"/><circle cx="309" cy="284.71" r="3" fill="#e45756"/><circle cx="315.8" cy="284.71" r="3" fill="#e45756"/><circle cx="322.6" cy="284.71" r="3" fill="#e45756"/><circle cx="329.4" cy="284.71" r="3" fill="#e45756"/><circle cx="336.2" cy="284.71" r="3" fill="#e45756"/><circle cx="343" cy="284.71" r="3" fill="#e45756"/><circle cx="349.8" cy="284.71" r="3" fill="#e45756"/><circle cx="356.6" cy="284.62" r="3" fill="#e45756"/><circle cx="363.4" cy="284.62" r="3" fill="#e45756"/><circle cx="370.2" cy="284.62" r="3" fill="#e45756"/><circle cx="377" cy="284.62" r="3" fill="#e45756"/><circle cx="383.8" cy="284.44" r="3" fill="#e45756"/><circle cx="390.6" cy="281.79" r="3" fill="#e45756"/><circle cx="397.4" cy="280.61" r="3" fill="#e45756"/><circle cx="404.2" cy="280.61" r="3" fill="#e45756"/><circle cx="411" cy="280.61" r="3" fill="#e45756"/><circle cx="417.8" cy="280.15" r="3" fill="#e45756"/><circle cx="424.6" cy="280.15" r="3" fill="#e45756"/><circle cx="431.39" cy="275.41" r="3" fill="#e45756"/><circle cx="438.19" cy="275.41" r="3" fill="#e45756"/><circle cx="444.99" cy="275.32" r="3" fill="#e45756"/><circle cx="451.79" cy="275.32" r="3" fill="#e45756"/><circle cx="458.59" cy="275.23" r="3" fill="#e45756"/><circle cx="465.39" cy="275.23" r="3" fill="#e45756"/><circle cx="472.19" cy="275.23" r="3" fill="#e45756"/><circle cx="478.99" cy="275.68" r="3" fill="#e45756"/><circle cx="485.79" cy="275.68" r="3" fill="#e45756"/><circle cx="492.59" cy="275.23" r="3" fill="#e45756"/><circle cx="499.39" cy="275.23" r="3" fill="#e45756"/><circle cx="506.19" cy="274.77" r="3" fill="#e45756"/><circle cx="512.99" cy="274.77" r="3" fill="#e45756"/><circle cx="519.79" cy="274.31" r="3" fill="#e45756"/><circle cx="526.59" cy="265.56" r="3" fill="#e45756"/><circle cx="533.39" cy="272.12" r="3" fill="#e45756"/><circle cx="540.19" cy="271.94" r="3" fill="#e45756"/><circle cx="546.99" cy="268.11" r="3" fill="#e45756"/><circle cx="553.79" cy="260.54" r="3" fill="#e45756"/><circle cx="560.59" cy="260.27" r="3" fill="#e45756"/><circle cx="567.39" cy="259.27" r="3" fill="#e45756"/><circle cx="574.18" cy="257.81" r="3" fill="#e45756"/><circle cx="580.98" cy="257.62" r="3" fill="#e45756"/><circle cx="587.78" cy="196.25" r="3" fill="#e45756"/><circle cx="594.58" cy="172.17" r="3" fill="#e45756"/><circle cx="601.38" cy="147.82" r="3" fill="#e45756"/><circle cx="608.18" cy="147.27" r="3" fill="#e45756"/><circle cx="614.98" cy="133.59" r="3" fill="#e45756"/><circle cx="621.78" cy="132.59" r="3" fill="#e45756"/><circle cx="628.58" cy="111.98" r="3" fill="#e45756"/><circle cx="635.38" cy="92.64" r="3" fill="#e45756"/><circle cx="642.18" cy="89.63" r="3" fill="#e45756"/><circle cx="648.98" cy="84.07" r="3" fill="#e45756"/><circle cx="655.78" cy="83.34" r="3" fill="#e45756"/><polyline points="64.22,288.91 71.02,288.91 77.82,287.99 84.62,287.99 91.42,287.99 98.22,287.26 105.02,287.26 111.82,287.26 118.62,287.26 125.42,287.26 132.22,287.26 139.02,287.26 145.82,287.26 152.61,287.26 159.41,287.26 166.21,287.26 173.01,287.26 179.81,287.26 186.61,287.26 193.41,287.26 200.21,287.26 207.01,287.26 213.81,287.26 220.61,287.26 227.41,287.26 234.21,287.26 241.01,287.26 247.81,287.26 254.61,287.26 261.41,287.26 268.21,287.26 275.01,287.26 281.81,287.26 288.61,287.26 295.4,287.26 302.2,287.26 309,287.26 315.8,287.26 322.6,287.26 329.4,287.26 336.2,287.26 343,287.26 349.8,287.26 356.6,287.26 363.4,287.26 370.2,287.26 377,287.26 383.8,287.26 390.6,287.36 397.4,286.44 404.2,286.44 411,286.44 417.8,286.44 424.6,286.44 431.39,286.44 438.19,286.44 444.99,286.44 451.79,286.44 458.59,286.44 465.39,286.44 472.19,286.44 478.99,286.44 485.79,286.44 492.59,286.44 499.39,286.44 506.19,286.44 512.99,286.44 519.79,286.44 526.59,286.44 533.39,279.88 540.19,279.88 546.99,279.88 553.79,279.88 560.59,279.88 567.39,279.88 574.18,279.88 580.98,279.88 587.78,279.88 594.58,279.88 601.38,279.88 608.18,279.88 614.98,279.88 621.78,279.79 628.58,279.69 635.38,277.78 642.18,277.78 648.98,277.78 655.78,277.78" fill="none" stroke="#72b7b2" stroke-width="3"/><circle cx="64.22" cy="288.91" r="3" fill="#72b7b2"/><circle cx="71.02" cy="288.91" r="3" fill="#72b7b2"/><circle cx="77.82" cy="287.99" r="3" fill="#72b7b2"/><circle cx="84.62" cy="287.99" r="3" fill="#72b7b2"/><circle cx="91.42" cy="287.99" r="3" fill="#72b7b2"/><circle cx="98.22" cy="287.26" r="3" fill="#72b7b2"/><circle cx="105.02" cy="287.26" r="3" fill="#72b7b2"/><circle cx="111.82" cy="287.26" r="3" fill="#72b7b2"/><circle cx="118.62" cy="287.26" r="3" fill="#72b7b2"/><circle cx="125.42" cy="287.26" r="3" fill="#72b7b2"/><circle cx="132.22" cy="287.26" r="3" fill="#72b7b2"/><circle cx="139.02" cy="287.26" r="3" fill="#72b7b2"/><circle cx="145.82" cy="287.26" r="3" fill="#72b7b2"/><circle cx="152.61" cy="287.26" r="3" fill="#72b7b2"/><circle cx="159.41" cy="287.26" r="3" fill="#72b7b2"/><circle cx="166.21" cy="287.26" r="3" fill="#72b7b2"/><circle cx="173.01" cy="287.26" r="3" fill="#72b7b2"/><circle cx="179.81" cy="287.26" r="3" fill="#72b7b2"/><circle cx="186.61" cy="287.26" r="3" fill="#72b7b2"/><circle cx="193.41" cy="287.26" r="3" fill="#72b7b2"/><circle cx="200.21" cy="287.26" r="3" fill="#72b7b2"/><circle cx="207.01" cy="287.26" r="3" fill="#72b7b2"/><circle cx="213.81" cy="287.26" r="3" fill="#72b7b2"/><circle cx="220.61" cy="287.26" r="3" fill="#72b7b2"/><circle cx="227.41" cy="287.26" r="3" fill="#72b7b2"/><circle cx="234.21" cy="287.26" r="3" fill="#72b7b2"/><circle cx="241.01" cy="287.26" r="3" fill="#72b7b2"/><circle cx="247.81" cy="287.26" r="3" fill="#72b7b2"/><circle cx="254.61" cy="287.26" r="3" fill="#72b7b2"/><circle cx="261.41" cy="287.26" r="3" fill="#72b7b2"/><circle cx="268.21" cy="287.26" r="3" fill="#72b7b2"/><circle cx="275.01" cy="287.26" r="3" fill="#72b7b2"/><circle cx="281.81" cy="287.26" r="3" fill="#72b7b2"/><circle cx="288.61" cy="287.26" r="3" fill="#72b7b2"/><circle cx="295.4" cy="287.26" r="3" fill="#72b7b2"/><circle cx="302.2" cy="287.26" r="3" fill="#72b7b2"/><circle cx="309" cy="287.26" r="3" fill="#72b7b2"/><circle cx="315.8" cy="287.26" r="3" fill="#72b7b2"/><circle cx="322.6" cy="287.26" r="3" fill="#72b7b2"/><circle cx="329.4" cy="287.26" r="3" fill="#72b7b2"/><circle cx="336.2" cy="287.26" r="3" fill="#72b7b2"/><circle cx="343" cy="287.26" r="3" fill="#72b7b2"/><circle cx="349.8" cy="287.26" r="3" fill="#72b7b2"/><circle cx="356.6" cy="287.26" r="3" fill="#72b7b2"/><circle cx="363.4" cy="287.26" r="3" fill="#72b7b2"/><circle cx="370.2" cy="287.26" r="3" fill="#72b7b2"/><circle cx="377" cy="287.26" r="3" fill="#72b7b2"/><circle cx="383.8" cy="287.26" r="3" fill="#72b7b2"/><circle cx="390.6" cy="287.36" r="3" fill="#72b7b2"/><circle cx="397.4" cy="286.44" r="3" fill="#72b7b2"/><circle cx="404.2" cy="286.44" r="3" fill="#72b7b2"/><circle cx="411" cy="286.44" r="3" fill="#72b7b2"/><circle cx="417.8" cy="286.44" r="3" fill="#72b7b2"/><circle cx="424.6" cy="286.44" r="3" fill="#72b7b2"/><circle cx="431.39" cy="286.44" r="3" fill="#72b7b2"/><circle cx="438.19" cy="286.44" r="3" fill="#72b7b2"/><circle cx="444.99" cy="286.44" r="3" fill="#72b7b2"/><circle cx="451.79" cy="286.44" r="3" fill="#72b7b2"/><circle cx="458.59" cy="286.44" r="3" fill="#72b7b2"/><circle cx="465.39" cy="286.44" r="3" fill="#72b7b2"/><circle cx="472.19" cy="286.44" r="3" fill="#72b7b2"/><circle cx="478.99" cy="286.44" r="3" fill="#72b7b2"/><circle cx="485.79" cy="286.44" r="3" fill="#72b7b2"/><circle cx="492.59" cy="286.44" r="3" fill="#72b7b2"/><circle cx="499.39" cy="286.44" r="3" fill="#72b7b2"/><circle cx="506.19" cy="286.44" r="3" fill="#72b7b2"/><circle cx="512.99" cy="286.44" r="3" fill="#72b7b2"/><circle cx="519.79" cy="286.44" r="3" fill="#72b7b2"/><circle cx="526.59" cy="286.44" r="3" fill="#72b7b2"/><circle cx="533.39" cy="279.88" r="3" fill="#72b7b2"/><circle cx="540.19" cy="279.88" r="3" fill="#72b7b2"/><circle cx="546.99" cy="279.88" r="3" fill="#72b7b2"/><circle cx="553.79" cy="279.88" r="3" fill="#72b7b2"/><circle cx="560.59" cy="279.88" r="3" fill="#72b7b2"/><circle cx="567.39" cy="279.88" r="3" fill="#72b7b2"/><circle cx="574.18" cy="279.88" r="3" fill="#72b7b2"/><circle cx="580.98" cy="279.88" r="3" fill="#72b7b2"/><circle cx="587.78" cy="279.88" r="3" fill="#72b7b2"/><circle cx="594.58" cy="279.88" r="3" fill="#72b7b2"/><circle cx="601.38" cy="279.88" r="3" fill="#72b7b2"/><circle cx="608.18" cy="279.88" r="3" fill="#72b7b2"/><circle cx="614.98" cy="279.88" r="3" fill="#72b7b2"/><circle cx="621.78" cy="279.79" r="3" fill="#72b7b2"/><circle cx="628.58" cy="279.69" r="3" fill="#72b7b2"/><circle cx="635.38" cy="277.78" r="3" fill="#72b7b2"/><circle cx="642.18" cy="277.78" r="3" fill="#72b7b2"/><circle cx="648.98" cy="277.78" r="3" fill="#72b7b2"/><circle cx="655.78" cy="277.78" r="3" fill="#72b7b2"/></svg>
