<svg xmlns="http://www.w3.org/2000/svg" width="720" height="320" viewBox="0 0 720 320"><rect x="0" y="0" width="720" height="320" fill="#ffffff"/><text x="360" y="24" font-family="Noto Sans JP, sans-serif" font-size="16" text-anchor="middle" fill="#333333">qtest nightly trend</text><line x1="64.22" y1="290" x2="655.78" y2="290" stroke="#dddddd" stroke-width="1"/><text x="58.22" y="293.85" font-family="Noto Sans JP, sans-serif" font-size="11" text-anchor="end" fill="#333333">0</text><line x1="64.22" y1="252" x2="655.78" y2="252" stroke="#dddddd" stroke-width="1"/><text x="58.22" y="255.85" font-family="Noto Sans JP, sans-serif" font-size="11" text-anchor="end" fill="#333333">500</text><line x1="64.22" y1="214" x2="655.78" y2="214" stroke="#dddddd" stroke-width="1"/><text x="58.22" y="217.85" font-family="Noto Sans JP, sans-serif" font-size="11" text-anchor="end" fill="#333333">1000</text><line x1="64.22" y1="176" x2="655.78" y2="176" stroke="#dddddd" stroke-width="1"/><text x="58.22" y="179.85" font-family="Noto Sans JP, sans-serif" font-size="11" text-anchor="end" fill="#333333">1500</text><line x1="64.22" y1="138" x2="655.78" y2="138" stroke="#dddddd" stroke-width="1"/><text x="58.22" y="141.85" font-family="Noto Sans JP, sans-serif" font-size="11" text-anchor="end" fill="#333333">2000</text><line x1="64.22" y1="100" x2="655.78" y2="100" stroke="#dddddd" stroke-width="1"/><text x="58.22" y="103.85" font-family="Noto Sans JP, sans-serif" font-size="11" text-anchor="end" fill="#333333">2500</text><line x1="64.22" y1="62" x2="655.78" y2="62" stroke="#dddddd" stroke-width="1"/><text x="58.22" y="65.85" font-family="Noto Sans JP, sans-serif" font-size="11" text-anchor="end" fill="#333333">3000</text><line x1="64.22" y1="290" x2="655.78" y2="290" stroke="#333333" stroke-width="1"/><text x="64.22" y="305.4" font-family="Noto Sans JP, sans-serif" font-size="11" text-anchor="middle" fill="#333333">2026-06-05T19:55:20Z</text><text x="182.53" y="305.4" font-family="Noto Sans JP, sans-serif" font-size="11" text-anchor="middle" fill="#333333">2026-06-24T19:46:28Z</text><text x="300.84" y="305.4" font-family="Noto Sans JP, sans-serif" font-size="11" text-anchor="middle" fill="#333333">2026-07-13T19:23:30Z</text><text x="419.16" y="305.4" font-family="Noto Sans JP, sans-serif" font-size="11" text-anchor="middle" fill="#333333">2026-08-04T19:37:59Z</text><text x="537.47" y="305.4" font-family="Noto Sans JP, sans-serif" font-size="11" text-anchor="middle" fill="#333333">2026-08-23T18:30:17Z</text><text x="655.78" y="305.4" font-family="Noto Sans JP, sans-serif" font-size="11" text-anchor="middle" fill="#333333">2026-09-11T20:36:00Z</text><rect x="204.82" y="43" width="12" height="12" fill="#4c78a8"/><text x="220.82" y="52.85" font-family="Noto Sans JP, sans-serif" font-size="11" text-anchor="start" fill="#333333">regressions</text><rect x="295.6" y="43" width="12" height="12" fill="#f58518"/><text x="311.6" y="52.85" font-family="Noto Sans JP, sans-serif" font-size="11" text-anchor="start" fill="#333333">missing</text><rect x="367.04" y="43" width="12" height="12" fill="#e45756"/><text x="383.04" y="52.85" font-family="Noto Sans JP, sans-serif" font-size="11" text-anchor="start" fill="#333333">candidates</text><rect x="455.8" y="43" width="12" height="12" fill="#72b7b2"/><text x="471.8" y="52.85" font-family="Noto Sans JP, sans-serif" font-size="11" text-anchor="start" fill="#333333">allowlist</text><polyline points="64.22,290 70.45,290 76.67,290 82.9,290 89.13,290 95.36,290 101.58,290 107.81,290 114.04,290 120.26,290 126.49,290 132.72,290 138.94,290 145.17,290 151.4,290 157.62,290 163.85,290 170.08,290 176.31,290 182.53,290 188.76,290 194.99,290 201.21,290 207.44,290 213.67,290 219.89,290 226.12,290 232.35,290 238.57,290 244.8,290 251.03,290 257.26,290 263.48,290 269.71,290 275.94,290 282.16,290 288.39,290 294.62,290 300.84,290 307.07,290 313.3,290 319.52,290 325.75,290 331.98,290 338.21,290 344.43,290 350.66,290 356.89,290 363.11,290 369.34,290 375.57,290 381.79,290 388.02,290 394.25,290 400.48,290 406.7,290 412.93,290 419.16,290 425.38,290 431.61,290 437.84,290 444.06,290 450.29,290 456.52,290 462.74,290 468.97,290 475.2,290 481.43,290 487.65,290 493.88,290 500.11,290 506.33,290 512.56,290 518.79,290 525.01,290 531.24,290 537.47,290 543.69,290 549.92,290 556.15,290 562.38,290 568.6,290 574.83,290 581.06,289.92 587.28,290 593.51,290 599.74,290 605.96,290 612.19,290 618.42,290 624.64,290 630.87,290 637.1,290 643.33,290 649.55,290 655.78,290" fill="none" stroke="#4c78a8" stroke-width="3"/><circle cx="64.22" cy="290" r="3" fill="#4c78a8"/><circle cx="70.45" cy="290" r="3" fill="#4c78a8"/><circle cx="76.67" cy="290" r="3" fill="#4c78a8"/><circle cx="82.9" cy="290" r="3" fill="#4c78a8"/><circle cx="89.13" cy="290" r="3" fill="#4c78a8"/><circle cx="95.36" cy="290" r="3" fill="#4c78a8"/><circle cx="101.58" cy="290" r="3" fill="#4c78a8"/><circle cx="107.81" cy="290" r="3" fill="#4c78a8"/><circle cx="114.04" cy="290" r="3" fill="#4c78a8"/><circle cx="120.26" cy="290" r="3" fill="#4c78a8"/><circle cx="126.49" cy="290" r="3" fill="#4c78a8"/><circle cx="132.72" cy="290" r="3" fill="#4c78a8"/><circle cx="138.94" cy="290" r="3" fill="#4c78a8"/><circle cx="145.17" cy="290" r="3" fill="#4c78a8"/><circle cx="151.4" cy="290" r="3" fill="#4c78a8"/><circle cx="157.62" cy="290" r="3" fill="#4c78a8"/><circle cx="163.85" cy="290" r="3" fill="#4c78a8"/><circle cx="170.08" cy="290" r="3" fill="#4c78a8"/><circle cx="176.31" cy="290" r="3" fill="#4c78a8"/><circle cx="182.53" cy="290" r="3" fill="#4c78a8"/><circle cx="188.76" cy="290" r="3" fill="#4c78a8"/><circle cx="194.99" cy="290" r="3" fill="#4c78a8"/><circle cx="201.21" cy="290" r="3" fill="#4c78a8"/><circle cx="207.44" cy="290" r="3" fill="#4c78a8"/><circle cx="213.67" cy="290" r="3" fill="#4c78a8"/><circle cx="219.89" cy="290" r="3" fill="#4c78a8"/><circle cx="226.12" cy="290" r="3" fill="#4c78a8"/><circle cx="232.35" cy="290" r="3" fill="#4c78a8"/><circle cx="238.57" cy="290" r="3" fill="#4c78a8"/><circle cx="244.8" cy="290" r="3" fill="#4c78a8"/><circle cx="251.03" cy="290" r="3" fill="#4c78a8"/><circle cx="257.26" cy="290" r="3" fill="#4c78a8"/><circle cx="263.48" cy="290" r="3" fill="#4c78a8"/><circle cx="269.71" cy="290" r="3" fill="#4c78a8"/><circle cx="275.94" cy="290" r="3" fill="#4c78a8"/><circle cx="282.16" cy="290" r="3" fill="#4c78a8"/><circle cx="288.39" cy="290" r="3" fill="#4c78a8"/><circle cx="294.62" cy="290" r="3" fill="#4c78a8"/><circle cx="300.84" cy="290" r="3" fill="#4c78a8"/><circle cx="307.07" cy="290" r="3" fill="#4c78a8"/><circle cx="313.3" cy="290" r="3" fill="#4c78a8"/><circle cx="319.52" cy="290" r="3" fill="#4c78a8"/><circle cx="325.75" cy="290" r="3" fill="#4c78a8"/><circle cx="331.98" cy="290" r="3" fill="#4c78a8"/><circle cx="338.21" cy="290" r="3" fill="#4c78a8"/><circle cx="344.43" cy="290" r="3" fill="#4c78a8"/><circle cx="350.66" cy="290" r="3" fill="#4c78a8"/><circle cx="356.89" cy="290" r="3" fill="#4c78a8"/><circle cx="363.11" cy="290" r="3" fill="#4c78a8"/><circle cx="369.34" cy="290" r="3" fill="#4c78a8"/><circle cx="375.57" cy="290" r="3" fill="#4c78a8"/><circle cx="381.79" cy="290" r="3" fill="#4c78a8"/><circle cx="388.02" cy="290" r="3" fill="#4c78a8"/><circle cx="394.25" cy="290" r="3" fill="#4c78a8"/><circle cx="400.48" cy="290" r="3" fill="#4c78a8"/><circle cx="406.7" cy="290" r="3" fill="#4c78a8"/><circle cx="412.93" cy="290" r="3" fill="#4c78a8"/><circle cx="419.16" cy="290" r="3" fill="#4c78a8"/><circle cx="425.38" cy="290" r="3" fill="#4c78a8"/><circle cx="431.61" cy="290" r="3" fill="#4c78a8"/><circle cx="437.84" cy="290" r="3" fill="#4c78a8"/><circle cx="444.06" cy="290" r="3" fill="#4c78a8"/><circle cx="450.29" cy="290" r="3" fill="#4c78a8"/><circle cx="456.52" cy="290" r="3" fill="#4c78a8"/><circle cx="462.74" cy="290" r="3" fill="#4c78a8"/><circle cx="468.97" cy="290" r="3" fill="#4c78a8"/><circle cx="475.2" cy="290" r="3" fill="#4c78a8"/><circle cx="481.43" cy="290" r="3" fill="#4c78a8"/><circle cx="487.65" cy="290" r="3" fill="#4c78a8"/><circle cx="493.88" cy="290" r="3" fill="#4c78a8"/><circle cx="500.11" cy="290" r="3" fill="#4c78a8"/><circle cx="506.33" cy="290" r="3" fill="#4c78a8"/><circle cx="512.56" cy="290" r="3" fill="#4c78a8"/><circle cx="518.79" cy="290" r="3" fill="#4c78a8"/><circle cx="525.01" cy="290" r="3" fill="#4c78a8"/><circle cx="531.24" cy="290" r="3" fill="#4c78a8"/><circle cx="537.47" cy="290" r="3" fill="#4c78a8"/><circle cx="543.69" cy="290" r="3" fill="#4c78a8"/><circle cx="549.92" cy="290" r="3" fill="#4c78a8"/><circle cx="556.15" cy="290" r="3" fill="#4c78a8"/><circle cx="562.38" cy="290" r="3" fill="#4c78a8"/><circle cx="568.6" cy="290" r="3" fill="#4c78a8"/><circle cx="574.83" cy="290" r="3" fill="#4c78a8"/><circle cx="581.06" cy="289.92" r="3" fill="#4c78a8"/><circle cx="587.28" cy="290" r="3" fill="#4c78a8"/><circle cx="593.51" cy="290" r="3" fill="#4c78a8"/><circle cx="599.74" cy="290" r="3" fill="#4c78a8"/><circle cx="605.96" cy="290" r="3" fill="#4c78a8"/><circle cx="612.19" cy="290" r="3" fill="#4c78a8"/><circle cx="618.42" cy="290" r="3" fill="#4c78a8"/><circle cx="624.64" cy="290" r="3" fill="#4c78a8"/><circle cx="630.87" cy="290" r="3" fill="#4c78a8"/><circle cx="637.1" cy="290" r="3" fill="#4c78a8"/><circle cx="643.33" cy="290" r="3" fill="#4c78a8"/><circle cx="649.55" cy="290" r="3" fill="#4c78a8"/><circle cx="655.78" cy="290" r="3" fill="#4c78a8"/><polyline points="64.22,290 70.45,290 76.67,290 82.9,290 89.13,290 95.36,290 101.58,290 107.81,290 114.04,290 120.26,290 126.49,290 132.72,290 138.94,290 145.17,290 151.4,290 157.62,290 163.85,290 170.08,290 176.31,290 182.53,290 188.76,290 194.99,290 201.21,290 207.44,290 213.67,290 219.89,290 226.12,290 232.35,290 238.57,290 244.8,290 251.03,290 257.26,290 263.48,290 269.71,290 275.94,290 282.16,290 288.39,290 294.62,290 300.84,290 307.07,290 313.3,290 319.52,290 325.75,290 331.98,290 338.21,290 344.43,290 350.66,290 356.89,290 363.11,290 369.34,290 375.57,290 381.79,290 388.02,290 394.25,290 400.48,290 406.7,290 412.93,290 419.16,290 425.38,290 431.61,290 437.84,290 444.06,290 450.29,290 456.52,290 462.74,290 468.97,290 475.2,290 481.43,290 487.65,290 493.88,290 500.11,290 506.33,290 512.56,290 518.79,290 525.01,290 531.24,290 537.47,290 543.69,290 549.92,290 556.15,290 562.38,290 568.6,290 574.83,290 581.06,290 587.28,290 593.51,290 599.74,290 605.96,290 612.19,290 618.42,290 624.64,290 630.87,290 637.1,290 643.33,290 649.55,290 655.78,290" fill="none" stroke="#f58518" stroke-width="3"/><circle cx="64.22" cy="290" r="3" fill="#f58518"/><circle cx="70.45" cy="290" r="3" fill="#f58518"/><circle cx="76.67" cy="290" r="3" fill="#f58518"/><circle cx="82.9" cy="290" r="3" fill="#f58518"/><circle cx="89.13" cy="290" r="3" fill="#f58518"/><circle cx="95.36" cy="290" r="3" fill="#f58518"/><circle cx="101.58" cy="290" r="3" fill="#f58518"/><circle cx="107.81" cy="290" r="3" fill="#f58518"/><circle cx="114.04" cy="290" r="3" fill="#f58518"/><circle cx="120.26" cy="290" r="3" fill="#f58518"/><circle cx="126.49" cy="290" r="3" fill="#f58518"/><circle cx="132.72" cy="290" r="3" fill="#f58518"/><circle cx="138.94" cy="290" r="3" fill="#f58518"/><circle cx="145.17" cy="290" r="3" fill="#f58518"/><circle cx="151.4" cy="290" r="3" fill="#f58518"/><circle cx="157.62" cy="290" r="3" fill="#f58518"/><circle cx="163.85" cy="290" r="3" fill="#f58518"/><circle cx="170.08" cy="290" r="3" fill="#f58518"/><circle cx="176.31" cy="290" r="3" fill="#f58518"/><circle cx="182.53" cy="290" r="3" fill="#f58518"/><circle cx="188.76" cy="290" r="3" fill="#f58518"/><circle cx="194.99" cy="290" r="3" fill="#f58518"/><circle cx="201.21" cy="290" r="3" fill="#f58518"/><circle cx="207.44" cy="290" r="3" fill="#f58518"/><circle cx="213.67" cy="290" r="3" fill="#f58518"/><circle cx="219.89" cy="290" r="3" fill="#f58518"/><circle cx="226.12" cy="290" r="3" fill="#f58518"/><circle cx="232.35" cy="290" r="3" fill="#f58518"/><circle cx="238.57" cy="290" r="3" fill="#f58518"/><circle cx="244.8" cy="290" r="3" fill="#f58518"/><circle cx="251.03" cy="290" r="3" fill="#f58518"/><circle cx="257.26" cy="290" r="3" fill="#f58518"/><circle cx="263.48" cy="290" r="3" fill="#f58518"/><circle cx="269.71" cy="290" r="3" fill="#f58518"/><circle cx="275.94" cy="290" r="3" fill="#f58518"/><circle cx="282.16" cy="290" r="3" fill="#f58518"/><circle cx="288.39" cy="290" r="3" fill="#f58518"/><circle cx="294.62" cy="290" r="3" fill="#f58518"/><circle cx="300.84" cy="290" r="3" fill="#f58518"/><circle cx="307.07" cy="290" r="3" fill="#f58518"/><circle cx="313.3" cy="290" r="3" fill="#f58518"/><circle cx="319.52" cy="290" r="3" fill="#f58518"/><circle cx="325.75" cy="290" r="3" fill="#f58518"/><circle cx="331.98" cy="290" r="3" fill="#f58518"/><circle cx="338.21" cy="290" r="3" fill="#f58518"/><circle cx="344.43" cy="290" r="3" fill="#f58518"/><circle cx="350.66" cy="290" r="3" fill="#f58518"/><circle cx="356.89" cy="290" r="3" fill="#f58518"/><circle cx="363.11" cy="290" r="3" fill="#f58518"/><circle cx="369.34" cy="290" r="3" fill="#f58518"/><circle cx="375.57" cy="290" r="3" fill="#f58518"/><circle cx="381.79" cy="290" r="3" fill="#f58518"/><circle cx="388.02" cy="290" r="3" fill="#f58518"/><circle cx="394.25" cy="290" r="3" fill="#f58518"/><circle cx="400.48" cy="290" r="3" fill="#f58518"/><circle cx="406.7" cy="290" r="3" fill="#f58518"/><circle cx="412.93" cy="290" r="3" fill="#f58518"/><circle cx="419.16" cy="290" r="3" fill="#f58518"/><circle cx="425.38" cy="290" r="3" fill="#f58518"/><circle cx="431.61" cy="290" r="3" fill="#f58518"/><circle cx="437.84" cy="290" r="3" fill="#f58518"/><circle cx="444.06" cy="290" r="3" fill="#f58518"/><circle cx="450.29" cy="290" r="3" fill="#f58518"/><circle cx="456.52" cy="290" r="3" fill="#f58518"/><circle cx="462.74" cy="290" r="3" fill="#f58518"/><circle cx="468.97" cy="290" r="3" fill="#f58518"/><circle cx="475.2" cy="290" r="3" fill="#f58518"/><circle cx="481.43" cy="290" r="3" fill="#f58518"/><circle cx="487.65" cy="290" r="3" fill="#f58518"/><circle cx="493.88" cy="290" r="3" fill="#f58518"/><circle cx="500.11" cy="290" r="3" fill="#f58518"/><circle cx="506.33" cy="290" r="3" fill="#f58518"/><circle cx="512.56" cy="290" r="3" fill="#f58518"/><circle cx="518.79" cy="290" r="3" fill="#f58518"/><circle cx="525.01" cy="290" r="3" fill="#f58518"/><circle cx="531.24" cy="290" r="3" fill="#f58518"/><circle cx="537.47" cy="290" r="3" fill="#f58518"/><circle cx="543.69" cy="290" r="3" fill="#f58518"/><circle cx="549.92" cy="290" r="3" fill="#f58518"/><circle cx="556.15" cy="290" r="3" fill="#f58518"/><circle cx="562.38" cy="290" r="3" fill="#f58518"/><circle cx="568.6" cy="290" r="3" fill="#f58518"/><circle cx="574.83" cy="290" r="3" fill="#f58518"/><circle cx="581.06" cy="290" r="3" fill="#f58518"/><circle cx="587.28" cy="290" r="3" fill="#f58518"/><circle cx="593.51" cy="290" r="3" fill="#f58518"/><circle cx="599.74" cy="290" r="3" fill="#f58518"/><circle cx="605.96" cy="290" r="3" fill="#f58518"/><circle cx="612.19" cy="290" r="3" fill="#f58518"/><circle cx="618.42" cy="290" r="3" fill="#f58518"/><circle cx="624.64" cy="290" r="3" fill="#f58518"/><circle cx="630.87" cy="290" r="3" fill="#f58518"/><circle cx="637.1" cy="290" r="3" fill="#f58518"/><circle cx="643.33" cy="290" r="3" fill="#f58518"/><circle cx="649.55" cy="290" r="3" fill="#f58518"/><circle cx="655.78" cy="290" r="3" fill="#f58518"/><polyline points="64.22,288.94 70.45,288.94 76.67,286.28 82.9,286.28 89.13,286.28 95.36,286.2 101.58,286.2 107.81,286.28 114.04,286.28 120.26,286.2 126.49,286.2 132.72,286.2 138.94,286.12 145.17,286.12 151.4,286.12 157.62,286.12 163.85,286.12 170.08,286.12 176.31,286.12 182.53,286.12 188.76,286.12 194.99,286.12 201.21,286.12 207.44,286.12 213.67,286.12 219.89,286.12 226.12,286.12 232.35,286.12 238.57,286.12 244.8,286.12 251.03,286.12 257.26,286.12 263.48,286.12 269.71,286.12 275.94,286.12 282.16,286.12 288.39,285.59 294.62,285.59 300.84,285.59 307.07,285.59 313.3,285.59 319.52,285.59 325.75,285.59 331.98,285.52 338.21,285.52 344.43,285.52 350.66,285.52 356.89,285.36 363.11,283.16 369.34,282.17 375.57,282.17 381.79,282.17 388.02,281.79 394.25,281.79 400.48,277.84 406.7,277.84 412.93,277.76 419.16,277.76 425.38,277.69 431.61,277.69 437.84,277.69 444.06,278.07 450.29,278.07 456.52,277.69 462.74,277.69 468.97,277.31 475.2,277.31 481.43,276.93 487.65,269.63 493.88,275.1 500.11,274.95 506.33,271.76 512.56,265.45 518.79,265.22 525.01,264.39 531.24,263.17 537.47,263.02 543.69,211.87 549.92,191.81 556.15,171.52 562.38,171.06 568.6,159.66 574.83,158.82 581.06,141.65 587.28,125.54 593.51,123.03 599.74,118.39 605.96,117.78 612.19,115.05 618.42,107.37 624.64,105.4 630.87,104.1 637.1,102.66 643.33,99.92 649.55,96.43 655.78,94.3" fill="none" stroke="#e45756" stroke-width="3"/><circle cx="64.22" cy="288.94" r="3" fill="#e45756"/><circle cx="70.45" cy="288.94" r="3" fill="#e45756"/><circle cx="76.67" cy="286.28" r="3" fill="#e45756"/><circle cx="82.9" cy="286.28" r="3" fill="#e45756"/><circle cx="89.13" cy="286.28" r="3" fill="#e45756"/><circle cx="95.36" cy="286.2" r="3" fill="#e45756"/><circle cx="101.58" cy="286.2" r="3" fill="#e45756"/><circle cx="107.81" cy="286.28" r="3" fill="#e45756"/><circle cx="114.04" cy="286.28" r="3" fill="#e45756"/><circle cx="120.26" cy="286.2" r="3" fill="#e45756"/><circle cx="126.49" cy="286.2" r="3" fill="#e45756"/><circle cx="132.72" cy="286.2" r="3" fill="#e45756"/><circle cx="138.94" cy="286.12" r="3" fill="#e45756"/><circle cx="145.17" cy="286.12" r="3" fill="#e45756"/><circle cx="151.4" cy="286.12" r="3" fill="#e45756"/><circle cx="157.62" cy="286.12" r="3" fill="#e45756"/><circle cx="163.85" cy="286.12" r="3" fill="#e45756"/><circle cx="170.08" cy="286.12" r="3" fill="#e45756"/><circle cx="176.31" cy="286.12" r="3" fill="#e45756"/><circle cx="182.53" cy="286.12" r="3" fill="#e45756"/><circle cx="188.76" cy="286.12" r="3" fill="#e45756"/><circle cx="194.99" cy="286.12" r="3" fill="#e45756"/><circle cx="201.21" cy="286.12" r="3" fill="#e45756"/><circle cx="207.44" cy="286.12" r="3" fill="#e45756"/><circle cx="213.67" cy="286.12" r="3" fill="#e45756"/><circle cx="219.89" cy="286.12" r="3" fill="#e45756"/><circle cx="226.12" cy="286.12" r="3" fill="#e45756"/><circle cx="232.35" cy="286.12" r="3" fill="#e45756"/><circle cx="238.57" cy="286.12" r="3" fill="#e45756"/><circle cx="244.8" cy="286.12" r="3" fill="#e45756"/><circle cx="251.03" cy="286.12" r="3" fill="#e45756"/><circle cx="257.26" cy="286.12" r="3" fill="#e45756"/><circle cx="263.48" cy="286.12" r="3" fill="#e45756"/><circle cx="269.71" cy="286.12" r="3" fill="#e45756"/><circle cx="275.94" cy="286.12" r="3" fill="#e45756"/><circle cx="282.16" cy="286.12" r="3" fill="#e45756"/><circle cx="288.39" cy="285.59" r="3" fill="#e45756"/><circle cx="294.62" cy="285.59" r="3" fill="#e45756"/><circle cx="300.84" cy="285.59" r="3" fill="#e45756"/><circle cx="307.07" cy="285.59" r="3" fill="#e45756"/><circle cx="313.3" cy="285.59" r="3" fill="#e45756"/><circle cx="319.52" cy="285.59" r="3" fill="#e45756"/><circle cx="325.75" cy="285.59" r="3" fill="#e45756"/><circle cx="331.98" cy="285.52" r="3" fill="#e45756"/><circle cx="338.21" cy="285.52" r="3" fill="#e45756"/><circle cx="344.43" cy="285.52" r="3" fill="#e45756"/><circle cx="350.66" cy="285.52" r="3" fill="#e45756"/><circle cx="356.89" cy="285.36" r="3" fill="#e45756"/><circle cx="363.11" cy="283.16" r="3" fill="#e45756"/><circle cx="369.34" cy="282.17" r="3" fill="#e45756"/><circle cx="375.57" cy="282.17" r="3" fill="#e45756"/><circle cx="381.79" cy="282.17" r="3" fill="#e45756"/><circle cx="388.02" cy="281.79" r="3" fill="#e45756"/><circle cx="394.25" cy="281.79" r="3" fill="#e45756"/><circle cx="400.48" cy="277.84" r="3" fill="#e45756"/><circle cx="406.7" cy="277.84" r="3" fill="#e45756"/><circle cx="412.93" cy="277.76" r="3" fill="#e45756"/><circle cx="419.16" cy="277.76" r="3" fill="#e45756"/><circle cx="425.38" cy="277.69" r="3" fill="#e45756"/><circle cx="431.61" cy="277.69" r="3" fill="#e45756"/><circle cx="437.84" cy="277.69" r="3" fill="#e45756"/><circle cx="444.06" cy="278.07" r="3" fill="#e45756"/><circle cx="450.29" cy="278.07" r="3" fill="#e45756"/><circle cx="456.52" cy="277.69" r="3" fill="#e45756"/><circle cx="462.74" cy="277.69" r="3" fill="#e45756"/><circle cx="468.97" cy="277.31" r="3" fill="#e45756"/><circle cx="475.2" cy="277.31" r="3" fill="#e45756"/><circle cx="481.43" cy="276.93" r="3" fill="#e45756"/><circle cx="487.65" cy="269.63" r="3" fill="#e45756"/><circle cx="493.88" cy="275.1" r="3" fill="#e45756"/><circle cx="500.11" cy="274.95" r="3" fill="#e45756"/><circle cx="506.33" cy="271.76" r="3" fill="#e45756"/><circle cx="512.56" cy="265.45" r="3" fill="#e45756"/><circle cx="518.79" cy="265.22" r="3" fill="#e45756"/><circle cx="525.01" cy="264.39" r="3" fill="#e45756"/><circle cx="531.24" cy="263.17" r="3" fill="#e45756"/><circle cx="537.47" cy="263.02" r="3" fill="#e45756"/><circle cx="543.69" cy="211.87" r="3" fill="#e45756"/><circle cx="549.92" cy="191.81" r="3" fill="#e45756"/><circle cx="556.15" cy="171.52" r="3" fill="#e45756"/><circle cx="562.38" cy="171.06" r="3" fill="#e45756"/><circle cx="568.6" cy="159.66" r="3" fill="#e45756"/><circle cx="574.83" cy="158.82" r="3" fill="#e45756"/><circle cx="581.06" cy="141.65" r="3" fill="#e45756"/><circle cx="587.28" cy="125.54" r="3" fill="#e45756"/><circle cx="593.51" cy="123.03" r="3" fill="#e45756"/><circle cx="599.74" cy="118.39" r="3" fill="#e45756"/><circle cx="605.96" cy="117.78" r="3" fill="#e45756"/><circle cx="612.19" cy="115.05" r="3" fill="#e45756"/><circle cx="618.42" cy="107.37" r="3" fill="#e45756"/><circle cx="624.64" cy="105.4" r="3" fill="#e45756"/><circle cx="630.87" cy="104.1" r="3" fill="#e45756"/><circle cx="637.1" cy="102.66" r="3" fill="#e45756"/><circle cx="643.33" cy="99.92" r="3" fill="#e45756"/><circle cx="649.55" cy="96.43" r="3" fill="#e45756"/><circle cx="655.78" cy="94.3" r="3" fill="#e45756"/><polyline points="64.22,289.09 70.45,289.09 76.67,288.33 82.9,288.33 89.13,288.33 95.36,287.72 101.58,287.72 107.81,287.72 114.04,287.72 120.26,287.72 126.49,287.72 132.72,287.72 138.94,287.72 145.17,287.72 151.4,287.72 157.62,287.72 163.85,287.72 170.08,287.72 176.31,287.72 182.53,287.72 188.76,287.72 194.99,287.72 201.21,287.72 207.44,287.72 213.67,287.72 219.89,287.72 226.12,287.72 232.35,287.72 238.57,287.72 244.8,287.72 251.03,287.72 257.26,287.72 263.48,287.72 269.71,287.72 275.94,287.72 282.16,287.72 288.39,287.72 294.62,287.72 300.84,287.72 307.07,287.72 313.3,287.72 319.52,287.72 325.75,287.72 331.98,287.72 338.21,287.72 344.43,287.72 350.66,287.72 356.89,287.72 363.11,287.8 369.34,287.04 375.57,287.04 381.79,287.04 388.02,287.04 394.25,287.04 400.48,287.04 406.7,287.04 412.93,287.04 419.16,287.04 425.38,287.04 431.61,287.04 437.84,287.04 444.06,287.04 450.29,287.04 456.52,287.04 462.74,287.04 468.97,287.04 475.2,287.04 481.43,287.04 487.65,287.04 493.88,281.56 500.11,281.56 506.33,281.56 512.56,281.56 518.79,281.56 525.01,281.56 531.24,281.56 537.47,281.56 543.69,281.56 549.92,281.56 556.15,281.56 562.38,281.56 568.6,281.56 574.83,281.49 581.06,281.41 587.28,279.82 593.51,279.82 599.74,279.82 605.96,279.82 612.19,279.82 618.42,279.82 624.64,279.82 630.87,279.74 637.1,279.21 643.33,278.6 649.55,278.52 655.78,278.45" fill="none" stroke="#72b7b2" stroke-width="3"/><circle cx="64.22" cy="289.09" r="3" fill="#72b7b2"/><circle cx="70.45" cy="289.09" r="3" fill="#72b7b2"/><circle cx="76.67" cy="288.33" r="3" fill="#72b7b2"/><circle cx="82.9" cy="288.33" r="3" fill="#72b7b2"/><circle cx="89.13" cy="288.33" r="3" fill="#72b7b2"/><circle cx="95.36" cy="287.72" r="3" fill="#72b7b2"/><circle cx="101.58" cy="287.72" r="3" fill="#72b7b2"/><circle cx="107.81" cy="287.72" r="3" fill="#72b7b2"/><circle cx="114.04" cy="287.72" r="3" fill="#72b7b2"/><circle cx="120.26" cy="287.72" r="3" fill="#72b7b2"/><circle cx="126.49" cy="287.72" r="3" fill="#72b7b2"/><circle cx="132.72" cy="287.72" r="3" fill="#72b7b2"/><circle cx="138.94" cy="287.72" r="3" fill="#72b7b2"/><circle cx="145.17" cy="287.72" r="3" fill="#72b7b2"/><circle cx="151.4" cy="287.72" r="3" fill="#72b7b2"/><circle cx="157.62" cy="287.72" r="3" fill="#72b7b2"/><circle cx="163.85" cy="287.72" r="3" fill="#72b7b2"/><circle cx="170.08" cy="287.72" r="3" fill="#72b7b2"/><circle cx="176.31" cy="287.72" r="3" fill="#72b7b2"/><circle cx="182.53" cy="287.72" r="3" fill="#72b7b2"/><circle cx="188.76" cy="287.72" r="3" fill="#72b7b2"/><circle cx="194.99" cy="287.72" r="3" fill="#72b7b2"/><circle cx="201.21" cy="287.72" r="3" fill="#72b7b2"/><circle cx="207.44" cy="287.72" r="3" fill="#72b7b2"/><circle cx="213.67" cy="287.72" r="3" fill="#72b7b2"/><circle cx="219.89" cy="287.72" r="3" fill="#72b7b2"/><circle cx="226.12" cy="287.72" r="3" fill="#72b7b2"/><circle cx="232.35" cy="287.72" r="3" fill="#72b7b2"/><circle cx="238.57" cy="287.72" r="3" fill="#72b7b2"/><circle cx="244.8" cy="287.72" r="3" fill="#72b7b2"/><circle cx="251.03" cy="287.72" r="3" fill="#72b7b2"/><circle cx="257.26" cy="287.72" r="3" fill="#72b7b2"/><circle cx="263.48" cy="287.72" r="3" fill="#72b7b2"/><circle cx="269.71" cy="287.72" r="3" fill="#72b7b2"/><circle cx="275.94" cy="287.72" r="3" fill="#72b7b2"/><circle cx="282.16" cy="287.72" r="3" fill="#72b7b2"/><circle cx="288.39" cy="287.72" r="3" fill="#72b7b2"/><circle cx="294.62" cy="287.72" r="3" fill="#72b7b2"/><circle cx="300.84" cy="287.72" r="3" fill="#72b7b2"/><circle cx="307.07" cy="287.72" r="3" fill="#72b7b2"/><circle cx="313.3" cy="287.72" r="3" fill="#72b7b2"/><circle cx="319.52" cy="287.72" r="3" fill="#72b7b2"/><circle cx="325.75" cy="287.72" r="3" fill="#72b7b2"/><circle cx="331.98" cy="287.72" r="3" fill="#72b7b2"/><circle cx="338.21" cy="287.72" r="3" fill="#72b7b2"/><circle cx="344.43" cy="287.72" r="3" fill="#72b7b2"/><circle cx="350.66" cy="287.72" r="3" fill="#72b7b2"/><circle cx="356.89" cy="287.72" r="3" fill="#72b7b2"/><circle cx="363.11" cy="287.8" r="3" fill="#72b7b2"/><circle cx="369.34" cy="287.04" r="3" fill="#72b7b2"/><circle cx="375.57" cy="287.04" r="3" fill="#72b7b2"/><circle cx="381.79" cy="287.04" r="3" fill="#72b7b2"/><circle cx="388.02" cy="287.04" r="3" fill="#72b7b2"/><circle cx="394.25" cy="287.04" r="3" fill="#72b7b2"/><circle cx="400.48" cy="287.04" r="3" fill="#72b7b2"/><circle cx="406.7" cy="287.04" r="3" fill="#72b7b2"/><circle cx="412.93" cy="287.04" r="3" fill="#72b7b2"/><circle cx="419.16" cy="287.04" r="3" fill="#72b7b2"/><circle cx="425.38" cy="287.04" r="3" fill="#72b7b2"/><circle cx="431.61" cy="287.04" r="3" fill="#72b7b2"/><circle cx="437.84" cy="287.04" r="3" fill="#72b7b2"/><circle cx="444.06" cy="287.04" r="3" fill="#72b7b2"/><circle cx="450.29" cy="287.04" r="3" fill="#72b7b2"/><circle cx="456.52" cy="287.04" r="3" fill="#72b7b2"/><circle cx="462.74" cy="287.04" r="3" fill="#72b7b2"/><circle cx="468.97" cy="287.04" r="3" fill="#72b7b2"/><circle cx="475.2" cy="287.04" r="3" fill="#72b7b2"/><circle cx="481.43" cy="287.04" r="3" fill="#72b7b2"/><circle cx="487.65" cy="287.04" r="3" fill="#72b7b2"/><circle cx="493.88" cy="281.56" r="3" fill="#72b7b2"/><circle cx="500.11" cy="281.56" r="3" fill="#72b7b2"/><circle cx="506.33" cy="281.56" r="3" fill="#72b7b2"/><circle cx="512.56" cy="281.56" r="3" fill="#72b7b2"/><circle cx="518.79" cy="281.56" r="3" fill="#72b7b2"/><circle cx="525.01" cy="281.56" r="3" fill="#72b7b2"/><circle cx="531.24" cy="281.56" r="3" fill="#72b7b2"/><circle cx="537.47" cy="281.56" r="3" fill="#72b7b2"/><circle cx="543.69" cy="281.56" r="3" fill="#72b7b2"/><circle cx="549.92" cy="281.56" r="3" fill="#72b7b2"/><circle cx="556.15" cy="281.56" r="3" fill="#72b7b2"/><circle cx="562.38" cy="281.56" r="3" fill="#72b7b2"/><circle cx="568.6" cy="281.56" r="3" fill="#72b7b2"/><circle cx="574.83" cy="281.49" r="3" fill="#72b7b2"/><circle cx="581.06" cy="281.41" r="3" fill="#72b7b2"/><circle cx="587.28" cy="279.82" r="3" fill="#72b7b2"/><circle cx="593.51" cy="279.82" r="3" fill="#72b7b2"/><circle cx="599.74" cy="279.82" r="3" fill="#72b7b2"/><circle cx="605.96" cy="279.82" r="3" fill="#72b7b2"/><circle cx="612.19" cy="279.82" r="3" fill="#72b7b2"/><circle cx="618.42" cy="279.82" r="3" fill="#72b7b2"/><circle cx="624.64" cy="279.82" r="3" fill="#72b7b2"/><circle cx="630.87" cy="279.74" r="3" fill="#72b7b2"/><circle cx="637.1" cy="279.21" r="3" fill="#72b7b2"/><circle cx="643.33" cy="278.6" r="3" fill="#72b7b2"/><circle cx="649.55" cy="278.52" r="3" fill="#72b7b2"/><circle cx="655.78" cy="278.45" r="3" fill="#72b7b2"/></svg>
